<mxfile host="app.diagrams.net" modified="2023-12-19T23:23:42.460Z" agent="Mozilla/5.0 (Windows NT 10.0; Win64; x64) AppleWebKit/537.36 (KHTML, like Gecko) Chrome/120.0.0.0 Safari/537.36" etag="FMAwP7A2MK5cII5qgIRK" version="22.1.11" type="github" pages="2">
  <diagram id="C5RBs43oDa-KdzZeNtuy" name="Class diagram">
    <mxGraphModel dx="1949" dy="495" grid="1" gridSize="10" guides="1" tooltips="1" connect="1" arrows="1" fold="1" page="1" pageScale="1" pageWidth="827" pageHeight="1169" math="0" shadow="0">
      <root>
        <mxCell id="WIyWlLk6GJQsqaUBKTNV-0" />
        <mxCell id="WIyWlLk6GJQsqaUBKTNV-1" parent="WIyWlLk6GJQsqaUBKTNV-0" />
        <mxCell id="srA7FluS-shETUdFAsvK-31" value="Actors" style="swimlane;whiteSpace=wrap;html=1;" parent="WIyWlLk6GJQsqaUBKTNV-1" vertex="1">
          <mxGeometry x="10" y="10" width="810" height="630" as="geometry" />
        </mxCell>
        <mxCell id="srA7FluS-shETUdFAsvK-42" value="&lt;b&gt;Student&lt;/b&gt;" style="swimlane;fontStyle=0;childLayout=stackLayout;horizontal=1;startSize=26;fillColor=none;horizontalStack=0;resizeParent=1;resizeParentMax=0;resizeLast=0;collapsible=1;marginBottom=0;whiteSpace=wrap;html=1;" parent="srA7FluS-shETUdFAsvK-31" vertex="1">
          <mxGeometry x="30" y="320" width="162" height="130" as="geometry" />
        </mxCell>
        <mxCell id="srA7FluS-shETUdFAsvK-43" value="+ token: String {constant}" style="text;strokeColor=none;fillColor=none;align=left;verticalAlign=top;spacingLeft=4;spacingRight=4;overflow=hidden;rotatable=0;points=[[0,0.5],[1,0.5]];portConstraint=eastwest;whiteSpace=wrap;html=1;" parent="srA7FluS-shETUdFAsvK-42" vertex="1">
          <mxGeometry y="26" width="162" height="26" as="geometry" />
        </mxCell>
        <mxCell id="srA7FluS-shETUdFAsvK-110" value="+ school: School" style="text;strokeColor=none;fillColor=none;align=left;verticalAlign=top;spacingLeft=4;spacingRight=4;overflow=hidden;rotatable=0;points=[[0,0.5],[1,0.5]];portConstraint=eastwest;whiteSpace=wrap;html=1;" parent="srA7FluS-shETUdFAsvK-42" vertex="1">
          <mxGeometry y="52" width="162" height="26" as="geometry" />
        </mxCell>
        <mxCell id="srA7FluS-shETUdFAsvK-64" value="- role: Role {constant}" style="text;strokeColor=none;fillColor=none;align=left;verticalAlign=top;spacingLeft=4;spacingRight=4;overflow=hidden;rotatable=0;points=[[0,0.5],[1,0.5]];portConstraint=eastwest;whiteSpace=wrap;html=1;" parent="srA7FluS-shETUdFAsvK-42" vertex="1">
          <mxGeometry y="78" width="162" height="26" as="geometry" />
        </mxCell>
        <mxCell id="srA7FluS-shETUdFAsvK-47" value="+ subjects: Subject[]" style="text;strokeColor=none;fillColor=none;align=left;verticalAlign=top;spacingLeft=4;spacingRight=4;overflow=hidden;rotatable=0;points=[[0,0.5],[1,0.5]];portConstraint=eastwest;whiteSpace=wrap;html=1;" parent="srA7FluS-shETUdFAsvK-42" vertex="1">
          <mxGeometry y="104" width="162" height="26" as="geometry" />
        </mxCell>
        <mxCell id="srA7FluS-shETUdFAsvK-66" value="&lt;b&gt;Teacher&lt;/b&gt;" style="swimlane;fontStyle=0;childLayout=stackLayout;horizontal=1;startSize=26;fillColor=none;horizontalStack=0;resizeParent=1;resizeParentMax=0;resizeLast=0;collapsible=1;marginBottom=0;whiteSpace=wrap;html=1;" parent="srA7FluS-shETUdFAsvK-31" vertex="1">
          <mxGeometry x="230" y="320" width="162" height="104" as="geometry" />
        </mxCell>
        <mxCell id="srA7FluS-shETUdFAsvK-106" value="+ token: String {constant}" style="text;strokeColor=none;fillColor=none;align=left;verticalAlign=top;spacingLeft=4;spacingRight=4;overflow=hidden;rotatable=0;points=[[0,0.5],[1,0.5]];portConstraint=eastwest;whiteSpace=wrap;html=1;" parent="srA7FluS-shETUdFAsvK-66" vertex="1">
          <mxGeometry y="26" width="162" height="26" as="geometry" />
        </mxCell>
        <mxCell id="srA7FluS-shETUdFAsvK-113" value="- role: Role {constant}" style="text;strokeColor=none;fillColor=none;align=left;verticalAlign=top;spacingLeft=4;spacingRight=4;overflow=hidden;rotatable=0;points=[[0,0.5],[1,0.5]];portConstraint=eastwest;whiteSpace=wrap;html=1;" parent="srA7FluS-shETUdFAsvK-66" vertex="1">
          <mxGeometry y="52" width="162" height="26" as="geometry" />
        </mxCell>
        <mxCell id="srA7FluS-shETUdFAsvK-72" value="+ subjects: Subject[]" style="text;strokeColor=none;fillColor=none;align=left;verticalAlign=top;spacingLeft=4;spacingRight=4;overflow=hidden;rotatable=0;points=[[0,0.5],[1,0.5]];portConstraint=eastwest;whiteSpace=wrap;html=1;" parent="srA7FluS-shETUdFAsvK-66" vertex="1">
          <mxGeometry y="78" width="162" height="26" as="geometry" />
        </mxCell>
        <mxCell id="srA7FluS-shETUdFAsvK-74" value="&lt;b&gt;School Admin&lt;/b&gt;" style="swimlane;fontStyle=0;childLayout=stackLayout;horizontal=1;startSize=26;fillColor=none;horizontalStack=0;resizeParent=1;resizeParentMax=0;resizeLast=0;collapsible=1;marginBottom=0;whiteSpace=wrap;html=1;" parent="srA7FluS-shETUdFAsvK-31" vertex="1">
          <mxGeometry x="430" y="320" width="162" height="100" as="geometry" />
        </mxCell>
        <mxCell id="srA7FluS-shETUdFAsvK-107" value="+ token: String {constant}" style="text;strokeColor=none;fillColor=none;align=left;verticalAlign=top;spacingLeft=4;spacingRight=4;overflow=hidden;rotatable=0;points=[[0,0.5],[1,0.5]];portConstraint=eastwest;whiteSpace=wrap;html=1;" parent="srA7FluS-shETUdFAsvK-74" vertex="1">
          <mxGeometry y="26" width="162" height="22" as="geometry" />
        </mxCell>
        <mxCell id="srA7FluS-shETUdFAsvK-114" value="- role: Role {constant}" style="text;strokeColor=none;fillColor=none;align=left;verticalAlign=top;spacingLeft=4;spacingRight=4;overflow=hidden;rotatable=0;points=[[0,0.5],[1,0.5]];portConstraint=eastwest;whiteSpace=wrap;html=1;" parent="srA7FluS-shETUdFAsvK-74" vertex="1">
          <mxGeometry y="48" width="162" height="26" as="geometry" />
        </mxCell>
        <mxCell id="srA7FluS-shETUdFAsvK-81" value="+ school: School" style="text;strokeColor=none;fillColor=none;align=left;verticalAlign=top;spacingLeft=4;spacingRight=4;overflow=hidden;rotatable=0;points=[[0,0.5],[1,0.5]];portConstraint=eastwest;whiteSpace=wrap;html=1;" parent="srA7FluS-shETUdFAsvK-74" vertex="1">
          <mxGeometry y="74" width="162" height="26" as="geometry" />
        </mxCell>
        <mxCell id="srA7FluS-shETUdFAsvK-82" value="&lt;b&gt;Admin&lt;/b&gt;" style="swimlane;fontStyle=0;childLayout=stackLayout;horizontal=1;startSize=26;fillColor=none;horizontalStack=0;resizeParent=1;resizeParentMax=0;resizeLast=0;collapsible=1;marginBottom=0;whiteSpace=wrap;html=1;" parent="srA7FluS-shETUdFAsvK-31" vertex="1">
          <mxGeometry x="630" y="320" width="162" height="78" as="geometry" />
        </mxCell>
        <mxCell id="srA7FluS-shETUdFAsvK-108" value="+ token: String {constant}" style="text;strokeColor=none;fillColor=none;align=left;verticalAlign=top;spacingLeft=4;spacingRight=4;overflow=hidden;rotatable=0;points=[[0,0.5],[1,0.5]];portConstraint=eastwest;whiteSpace=wrap;html=1;" parent="srA7FluS-shETUdFAsvK-82" vertex="1">
          <mxGeometry y="26" width="162" height="26" as="geometry" />
        </mxCell>
        <mxCell id="srA7FluS-shETUdFAsvK-115" value="- role: Role {constant}" style="text;strokeColor=none;fillColor=none;align=left;verticalAlign=top;spacingLeft=4;spacingRight=4;overflow=hidden;rotatable=0;points=[[0,0.5],[1,0.5]];portConstraint=eastwest;whiteSpace=wrap;html=1;" parent="srA7FluS-shETUdFAsvK-82" vertex="1">
          <mxGeometry y="52" width="162" height="26" as="geometry" />
        </mxCell>
        <mxCell id="srA7FluS-shETUdFAsvK-97" value="&lt;b&gt;Visitor&lt;/b&gt;" style="swimlane;fontStyle=0;childLayout=stackLayout;horizontal=1;startSize=26;fillColor=none;horizontalStack=0;resizeParent=1;resizeParentMax=0;resizeLast=0;collapsible=1;marginBottom=0;whiteSpace=wrap;html=1;" parent="srA7FluS-shETUdFAsvK-31" vertex="1">
          <mxGeometry x="600" y="470" width="162" height="130" as="geometry" />
        </mxCell>
        <mxCell id="srA7FluS-shETUdFAsvK-98" value="+ token: String {constant}" style="text;strokeColor=none;fillColor=none;align=left;verticalAlign=top;spacingLeft=4;spacingRight=4;overflow=hidden;rotatable=0;points=[[0,0.5],[1,0.5]];portConstraint=eastwest;whiteSpace=wrap;html=1;" parent="srA7FluS-shETUdFAsvK-97" vertex="1">
          <mxGeometry y="26" width="162" height="26" as="geometry" />
        </mxCell>
        <mxCell id="srA7FluS-shETUdFAsvK-103" value="+ email: String" style="text;strokeColor=none;fillColor=none;align=left;verticalAlign=top;spacingLeft=4;spacingRight=4;overflow=hidden;rotatable=0;points=[[0,0.5],[1,0.5]];portConstraint=eastwest;whiteSpace=wrap;html=1;" parent="srA7FluS-shETUdFAsvK-97" vertex="1">
          <mxGeometry y="52" width="162" height="26" as="geometry" />
        </mxCell>
        <mxCell id="srA7FluS-shETUdFAsvK-105" value="+ phoneNumber: String" style="text;strokeColor=none;fillColor=none;align=left;verticalAlign=top;spacingLeft=4;spacingRight=4;overflow=hidden;rotatable=0;points=[[0,0.5],[1,0.5]];portConstraint=eastwest;whiteSpace=wrap;html=1;" parent="srA7FluS-shETUdFAsvK-97" vertex="1">
          <mxGeometry y="78" width="162" height="26" as="geometry" />
        </mxCell>
        <mxCell id="srA7FluS-shETUdFAsvK-112" value="- role: Role {constant}" style="text;strokeColor=none;fillColor=none;align=left;verticalAlign=top;spacingLeft=4;spacingRight=4;overflow=hidden;rotatable=0;points=[[0,0.5],[1,0.5]];portConstraint=eastwest;whiteSpace=wrap;html=1;" parent="srA7FluS-shETUdFAsvK-97" vertex="1">
          <mxGeometry y="104" width="162" height="26" as="geometry" />
        </mxCell>
        <mxCell id="srA7FluS-shETUdFAsvK-116" value="User" style="swimlane;fontStyle=0;childLayout=stackLayout;horizontal=1;startSize=26;fillColor=none;horizontalStack=0;resizeParent=1;resizeParentMax=0;resizeLast=0;collapsible=1;marginBottom=0;whiteSpace=wrap;html=1;" parent="srA7FluS-shETUdFAsvK-31" vertex="1">
          <mxGeometry x="340" y="70" width="162" height="156" as="geometry" />
        </mxCell>
        <mxCell id="srA7FluS-shETUdFAsvK-117" value="+ token: String {constant}" style="text;strokeColor=none;fillColor=none;align=left;verticalAlign=top;spacingLeft=4;spacingRight=4;overflow=hidden;rotatable=0;points=[[0,0.5],[1,0.5]];portConstraint=eastwest;whiteSpace=wrap;html=1;" parent="srA7FluS-shETUdFAsvK-116" vertex="1">
          <mxGeometry y="26" width="162" height="26" as="geometry" />
        </mxCell>
        <mxCell id="srA7FluS-shETUdFAsvK-119" value="- userName: String" style="text;strokeColor=none;fillColor=none;align=left;verticalAlign=top;spacingLeft=4;spacingRight=4;overflow=hidden;rotatable=0;points=[[0,0.5],[1,0.5]];portConstraint=eastwest;whiteSpace=wrap;html=1;" parent="srA7FluS-shETUdFAsvK-116" vertex="1">
          <mxGeometry y="52" width="162" height="26" as="geometry" />
        </mxCell>
        <mxCell id="srA7FluS-shETUdFAsvK-120" value="- password:&amp;nbsp; String" style="text;strokeColor=none;fillColor=none;align=left;verticalAlign=top;spacingLeft=4;spacingRight=4;overflow=hidden;rotatable=0;points=[[0,0.5],[1,0.5]];portConstraint=eastwest;whiteSpace=wrap;html=1;" parent="srA7FluS-shETUdFAsvK-116" vertex="1">
          <mxGeometry y="78" width="162" height="26" as="geometry" />
        </mxCell>
        <mxCell id="srA7FluS-shETUdFAsvK-121" value="- preferredName: String" style="text;strokeColor=none;fillColor=none;align=left;verticalAlign=top;spacingLeft=4;spacingRight=4;overflow=hidden;rotatable=0;points=[[0,0.5],[1,0.5]];portConstraint=eastwest;whiteSpace=wrap;html=1;" parent="srA7FluS-shETUdFAsvK-116" vertex="1">
          <mxGeometry y="104" width="162" height="26" as="geometry" />
        </mxCell>
        <mxCell id="srA7FluS-shETUdFAsvK-122" value="- pronoun: Pronoun" style="text;strokeColor=none;fillColor=none;align=left;verticalAlign=top;spacingLeft=4;spacingRight=4;overflow=hidden;rotatable=0;points=[[0,0.5],[1,0.5]];portConstraint=eastwest;whiteSpace=wrap;html=1;" parent="srA7FluS-shETUdFAsvK-116" vertex="1">
          <mxGeometry y="130" width="162" height="26" as="geometry" />
        </mxCell>
        <mxCell id="srA7FluS-shETUdFAsvK-111" value="&lt;p style=&quot;margin:0px;margin-top:4px;text-align:center;&quot;&gt;&lt;i&gt;&amp;lt;&amp;lt;Enumeration&amp;gt;&amp;gt;&lt;/i&gt;&lt;br&gt;&lt;b&gt;Role&lt;/b&gt;&lt;/p&gt;&lt;hr size=&quot;1&quot;&gt;&lt;p style=&quot;margin:0px;margin-left:4px;&quot;&gt;VISITOR&lt;/p&gt;&lt;p style=&quot;margin:0px;margin-left:4px;&quot;&gt;STUDENT&lt;br&gt;&lt;/p&gt;&lt;p style=&quot;margin:0px;margin-left:4px;&quot;&gt;TEACHER&lt;/p&gt;&lt;p style=&quot;margin:0px;margin-left:4px;&quot;&gt;SCHOOL_ADMIN&lt;/p&gt;&lt;p style=&quot;margin:0px;margin-left:4px;&quot;&gt;ADMIN&lt;/p&gt;&lt;p style=&quot;margin:0px;margin-left:4px;&quot;&gt;&lt;br&gt;&lt;/p&gt;" style="verticalAlign=top;align=left;overflow=fill;fontSize=12;fontFamily=Helvetica;html=1;whiteSpace=wrap;" parent="srA7FluS-shETUdFAsvK-31" vertex="1">
          <mxGeometry x="58" y="100" width="134" height="120" as="geometry" />
        </mxCell>
        <mxCell id="srA7FluS-shETUdFAsvK-141" value="" style="endArrow=block;endSize=16;endFill=0;html=1;rounded=0;exitX=0.5;exitY=0;exitDx=0;exitDy=0;entryX=0.431;entryY=1.187;entryDx=0;entryDy=0;entryPerimeter=0;" parent="srA7FluS-shETUdFAsvK-31" source="srA7FluS-shETUdFAsvK-42" target="srA7FluS-shETUdFAsvK-122" edge="1">
          <mxGeometry width="160" relative="1" as="geometry">
            <mxPoint x="280" y="500" as="sourcePoint" />
            <mxPoint x="440" y="500" as="targetPoint" />
            <Array as="points">
              <mxPoint x="110" y="270" />
              <mxPoint x="410" y="270" />
            </Array>
          </mxGeometry>
        </mxCell>
        <mxCell id="srA7FluS-shETUdFAsvK-142" value="" style="endArrow=none;html=1;rounded=0;exitX=0.5;exitY=0;exitDx=0;exitDy=0;" parent="srA7FluS-shETUdFAsvK-31" source="srA7FluS-shETUdFAsvK-66" edge="1">
          <mxGeometry width="50" height="50" relative="1" as="geometry">
            <mxPoint x="320" y="330" as="sourcePoint" />
            <mxPoint x="310" y="270" as="targetPoint" />
          </mxGeometry>
        </mxCell>
        <mxCell id="srA7FluS-shETUdFAsvK-143" value="" style="endArrow=none;html=1;rounded=0;exitX=0.5;exitY=0;exitDx=0;exitDy=0;" parent="srA7FluS-shETUdFAsvK-31" edge="1">
          <mxGeometry width="50" height="50" relative="1" as="geometry">
            <mxPoint x="511.5" y="320" as="sourcePoint" />
            <mxPoint x="410" y="270" as="targetPoint" />
            <Array as="points">
              <mxPoint x="512" y="270" />
            </Array>
          </mxGeometry>
        </mxCell>
        <mxCell id="srA7FluS-shETUdFAsvK-144" value="" style="endArrow=none;html=1;rounded=0;exitX=0.5;exitY=0;exitDx=0;exitDy=0;" parent="srA7FluS-shETUdFAsvK-31" edge="1">
          <mxGeometry width="50" height="50" relative="1" as="geometry">
            <mxPoint x="711.5" y="320" as="sourcePoint" />
            <mxPoint x="510" y="270" as="targetPoint" />
            <Array as="points">
              <mxPoint x="710" y="270" />
            </Array>
          </mxGeometry>
        </mxCell>
        <mxCell id="srA7FluS-shETUdFAsvK-187" value="Rooms" style="swimlane;whiteSpace=wrap;html=1;startSize=23;" parent="WIyWlLk6GJQsqaUBKTNV-1" vertex="1">
          <mxGeometry x="10" y="750" width="810" height="1020" as="geometry" />
        </mxCell>
        <mxCell id="srA7FluS-shETUdFAsvK-146" value="Subject" style="swimlane;fontStyle=0;childLayout=stackLayout;horizontal=1;startSize=26;fillColor=none;horizontalStack=0;resizeParent=1;resizeParentMax=0;resizeLast=0;collapsible=1;marginBottom=0;whiteSpace=wrap;html=1;" parent="srA7FluS-shETUdFAsvK-187" vertex="1">
          <mxGeometry x="30" y="380" width="200" height="156" as="geometry" />
        </mxCell>
        <mxCell id="srA7FluS-shETUdFAsvK-147" value="+ id: String {constant}" style="text;strokeColor=none;fillColor=none;align=left;verticalAlign=top;spacingLeft=4;spacingRight=4;overflow=hidden;rotatable=0;points=[[0,0.5],[1,0.5]];portConstraint=eastwest;whiteSpace=wrap;html=1;" parent="srA7FluS-shETUdFAsvK-146" vertex="1">
          <mxGeometry y="26" width="200" height="26" as="geometry" />
        </mxCell>
        <mxCell id="srA7FluS-shETUdFAsvK-148" value="+ owner: Teacher[]" style="text;strokeColor=none;fillColor=none;align=left;verticalAlign=top;spacingLeft=4;spacingRight=4;overflow=hidden;rotatable=0;points=[[0,0.5],[1,0.5]];portConstraint=eastwest;whiteSpace=wrap;html=1;" parent="srA7FluS-shETUdFAsvK-146" vertex="1">
          <mxGeometry y="52" width="200" height="26" as="geometry" />
        </mxCell>
        <mxCell id="PEpVWC3lu_L7I1P6-TOw-14" value="&amp;nbsp;- curriculum: Curriculum" style="text;strokeColor=none;fillColor=none;align=left;verticalAlign=top;spacingLeft=4;spacingRight=4;overflow=hidden;rotatable=0;points=[[0,0.5],[1,0.5]];portConstraint=eastwest;whiteSpace=wrap;html=1;" parent="srA7FluS-shETUdFAsvK-146" vertex="1">
          <mxGeometry y="78" width="200" height="26" as="geometry" />
        </mxCell>
        <mxCell id="PEpVWC3lu_L7I1P6-TOw-15" value="- coursework: Materials[]" style="text;strokeColor=none;fillColor=none;align=left;verticalAlign=top;spacingLeft=4;spacingRight=4;overflow=hidden;rotatable=0;points=[[0,0.5],[1,0.5]];portConstraint=eastwest;whiteSpace=wrap;html=1;" parent="srA7FluS-shETUdFAsvK-146" vertex="1">
          <mxGeometry y="104" width="200" height="26" as="geometry" />
        </mxCell>
        <mxCell id="PEpVWC3lu_L7I1P6-TOw-20" value="- examBank: Question[]" style="text;strokeColor=none;fillColor=none;align=left;verticalAlign=top;spacingLeft=4;spacingRight=4;overflow=hidden;rotatable=0;points=[[0,0.5],[1,0.5]];portConstraint=eastwest;whiteSpace=wrap;html=1;" parent="srA7FluS-shETUdFAsvK-146" vertex="1">
          <mxGeometry y="130" width="200" height="26" as="geometry" />
        </mxCell>
        <mxCell id="PEpVWC3lu_L7I1P6-TOw-2" value="Private Room" style="swimlane;fontStyle=0;childLayout=stackLayout;horizontal=1;startSize=26;fillColor=none;horizontalStack=0;resizeParent=1;resizeParentMax=0;resizeLast=0;collapsible=1;marginBottom=0;whiteSpace=wrap;html=1;" parent="srA7FluS-shETUdFAsvK-187" vertex="1">
          <mxGeometry x="30" y="40" width="240" height="234" as="geometry" />
        </mxCell>
        <mxCell id="PEpVWC3lu_L7I1P6-TOw-3" value="+ id: String {constant}" style="text;strokeColor=none;fillColor=none;align=left;verticalAlign=top;spacingLeft=4;spacingRight=4;overflow=hidden;rotatable=0;points=[[0,0.5],[1,0.5]];portConstraint=eastwest;whiteSpace=wrap;html=1;" parent="PEpVWC3lu_L7I1P6-TOw-2" vertex="1">
          <mxGeometry y="26" width="240" height="26" as="geometry" />
        </mxCell>
        <mxCell id="PEpVWC3lu_L7I1P6-TOw-4" value="+ owner: Teacher" style="text;strokeColor=none;fillColor=none;align=left;verticalAlign=top;spacingLeft=4;spacingRight=4;overflow=hidden;rotatable=0;points=[[0,0.5],[1,0.5]];portConstraint=eastwest;whiteSpace=wrap;html=1;" parent="PEpVWC3lu_L7I1P6-TOw-2" vertex="1">
          <mxGeometry y="52" width="240" height="26" as="geometry" />
        </mxCell>
        <mxCell id="PEpVWC3lu_L7I1P6-TOw-5" value="- students: Student[]" style="text;strokeColor=none;fillColor=none;align=left;verticalAlign=top;spacingLeft=4;spacingRight=4;overflow=hidden;rotatable=0;points=[[0,0.5],[1,0.5]];portConstraint=eastwest;whiteSpace=wrap;html=1;" parent="PEpVWC3lu_L7I1P6-TOw-2" vertex="1">
          <mxGeometry y="78" width="240" height="26" as="geometry" />
        </mxCell>
        <mxCell id="PEpVWC3lu_L7I1P6-TOw-6" value="- broadcast: String" style="text;strokeColor=none;fillColor=none;align=left;verticalAlign=top;spacingLeft=4;spacingRight=4;overflow=hidden;rotatable=0;points=[[0,0.5],[1,0.5]];portConstraint=eastwest;whiteSpace=wrap;html=1;" parent="PEpVWC3lu_L7I1P6-TOw-2" vertex="1">
          <mxGeometry y="104" width="240" height="26" as="geometry" />
        </mxCell>
        <mxCell id="PEpVWC3lu_L7I1P6-TOw-18" value="- subject: Subject" style="text;strokeColor=none;fillColor=none;align=left;verticalAlign=top;spacingLeft=4;spacingRight=4;overflow=hidden;rotatable=0;points=[[0,0.5],[1,0.5]];portConstraint=eastwest;whiteSpace=wrap;html=1;" parent="PEpVWC3lu_L7I1P6-TOw-2" vertex="1">
          <mxGeometry y="130" width="240" height="26" as="geometry" />
        </mxCell>
        <mxCell id="PEpVWC3lu_L7I1P6-TOw-7" value="- schedule: Schedule[]" style="text;strokeColor=none;fillColor=none;align=left;verticalAlign=top;spacingLeft=4;spacingRight=4;overflow=hidden;rotatable=0;points=[[0,0.5],[1,0.5]];portConstraint=eastwest;whiteSpace=wrap;html=1;" parent="PEpVWC3lu_L7I1P6-TOw-2" vertex="1">
          <mxGeometry y="156" width="240" height="26" as="geometry" />
        </mxCell>
        <mxCell id="PEpVWC3lu_L7I1P6-TOw-19" value="- subject: Subject" style="text;strokeColor=none;fillColor=none;align=left;verticalAlign=top;spacingLeft=4;spacingRight=4;overflow=hidden;rotatable=0;points=[[0,0.5],[1,0.5]];portConstraint=eastwest;whiteSpace=wrap;html=1;" parent="PEpVWC3lu_L7I1P6-TOw-2" vertex="1">
          <mxGeometry y="182" width="240" height="26" as="geometry" />
        </mxCell>
        <mxCell id="PEpVWC3lu_L7I1P6-TOw-16" value="&amp;nbsp;- coursework: LessonPlan[]" style="text;strokeColor=none;fillColor=none;align=left;verticalAlign=top;spacingLeft=4;spacingRight=4;overflow=hidden;rotatable=0;points=[[0,0.5],[1,0.5]];portConstraint=eastwest;whiteSpace=wrap;html=1;" parent="PEpVWC3lu_L7I1P6-TOw-2" vertex="1">
          <mxGeometry y="208" width="240" height="26" as="geometry" />
        </mxCell>
        <mxCell id="PEpVWC3lu_L7I1P6-TOw-11" value="Materials" style="swimlane;fontStyle=0;childLayout=stackLayout;horizontal=1;startSize=26;fillColor=none;horizontalStack=0;resizeParent=1;resizeParentMax=0;resizeLast=0;collapsible=1;marginBottom=0;whiteSpace=wrap;html=1;" parent="srA7FluS-shETUdFAsvK-187" vertex="1">
          <mxGeometry x="40" y="640" width="166" height="156" as="geometry" />
        </mxCell>
        <mxCell id="PEpVWC3lu_L7I1P6-TOw-12" value="+ id: String {constant}" style="text;strokeColor=none;fillColor=none;align=left;verticalAlign=top;spacingLeft=4;spacingRight=4;overflow=hidden;rotatable=0;points=[[0,0.5],[1,0.5]];portConstraint=eastwest;whiteSpace=wrap;html=1;" parent="PEpVWC3lu_L7I1P6-TOw-11" vertex="1">
          <mxGeometry y="26" width="166" height="26" as="geometry" />
        </mxCell>
        <mxCell id="PEpVWC3lu_L7I1P6-TOw-17" value="- text: links[]" style="text;strokeColor=none;fillColor=none;align=left;verticalAlign=top;spacingLeft=4;spacingRight=4;overflow=hidden;rotatable=0;points=[[0,0.5],[1,0.5]];portConstraint=eastwest;whiteSpace=wrap;html=1;" parent="PEpVWC3lu_L7I1P6-TOw-11" vertex="1">
          <mxGeometry y="52" width="166" height="26" as="geometry" />
        </mxCell>
        <mxCell id="PEpVWC3lu_L7I1P6-TOw-21" value="- video: links[]" style="text;strokeColor=none;fillColor=none;align=left;verticalAlign=top;spacingLeft=4;spacingRight=4;overflow=hidden;rotatable=0;points=[[0,0.5],[1,0.5]];portConstraint=eastwest;whiteSpace=wrap;html=1;" parent="PEpVWC3lu_L7I1P6-TOw-11" vertex="1">
          <mxGeometry y="78" width="166" height="26" as="geometry" />
        </mxCell>
        <mxCell id="PEpVWC3lu_L7I1P6-TOw-22" value="- quiz: links[]" style="text;strokeColor=none;fillColor=none;align=left;verticalAlign=top;spacingLeft=4;spacingRight=4;overflow=hidden;rotatable=0;points=[[0,0.5],[1,0.5]];portConstraint=eastwest;whiteSpace=wrap;html=1;" parent="PEpVWC3lu_L7I1P6-TOw-11" vertex="1">
          <mxGeometry y="104" width="166" height="26" as="geometry" />
        </mxCell>
        <mxCell id="PEpVWC3lu_L7I1P6-TOw-23" value="- research: links[]" style="text;strokeColor=none;fillColor=none;align=left;verticalAlign=top;spacingLeft=4;spacingRight=4;overflow=hidden;rotatable=0;points=[[0,0.5],[1,0.5]];portConstraint=eastwest;whiteSpace=wrap;html=1;" parent="PEpVWC3lu_L7I1P6-TOw-11" vertex="1">
          <mxGeometry y="130" width="166" height="26" as="geometry" />
        </mxCell>
        <mxCell id="PEpVWC3lu_L7I1P6-TOw-25" value="Lesson Plan" style="swimlane;fontStyle=0;childLayout=stackLayout;horizontal=1;startSize=26;fillColor=none;horizontalStack=0;resizeParent=1;resizeParentMax=0;resizeLast=0;collapsible=1;marginBottom=0;whiteSpace=wrap;html=1;" parent="srA7FluS-shETUdFAsvK-187" vertex="1">
          <mxGeometry x="250" y="380" width="166" height="156" as="geometry" />
        </mxCell>
        <mxCell id="PEpVWC3lu_L7I1P6-TOw-26" value="+ id: String {constant}" style="text;strokeColor=none;fillColor=none;align=left;verticalAlign=top;spacingLeft=4;spacingRight=4;overflow=hidden;rotatable=0;points=[[0,0.5],[1,0.5]];portConstraint=eastwest;whiteSpace=wrap;html=1;" parent="PEpVWC3lu_L7I1P6-TOw-25" vertex="1">
          <mxGeometry y="26" width="166" height="26" as="geometry" />
        </mxCell>
        <mxCell id="PEpVWC3lu_L7I1P6-TOw-27" value="- date: Date" style="text;strokeColor=none;fillColor=none;align=left;verticalAlign=top;spacingLeft=4;spacingRight=4;overflow=hidden;rotatable=0;points=[[0,0.5],[1,0.5]];portConstraint=eastwest;whiteSpace=wrap;html=1;" parent="PEpVWC3lu_L7I1P6-TOw-25" vertex="1">
          <mxGeometry y="52" width="166" height="26" as="geometry" />
        </mxCell>
        <mxCell id="PEpVWC3lu_L7I1P6-TOw-28" value="-&amp;nbsp; objective: Objective" style="text;strokeColor=none;fillColor=none;align=left;verticalAlign=top;spacingLeft=4;spacingRight=4;overflow=hidden;rotatable=0;points=[[0,0.5],[1,0.5]];portConstraint=eastwest;whiteSpace=wrap;html=1;" parent="PEpVWC3lu_L7I1P6-TOw-25" vertex="1">
          <mxGeometry y="78" width="166" height="26" as="geometry" />
        </mxCell>
        <mxCell id="PEpVWC3lu_L7I1P6-TOw-29" value="- quiz: links[]" style="text;strokeColor=none;fillColor=none;align=left;verticalAlign=top;spacingLeft=4;spacingRight=4;overflow=hidden;rotatable=0;points=[[0,0.5],[1,0.5]];portConstraint=eastwest;whiteSpace=wrap;html=1;" parent="PEpVWC3lu_L7I1P6-TOw-25" vertex="1">
          <mxGeometry y="104" width="166" height="26" as="geometry" />
        </mxCell>
        <mxCell id="PEpVWC3lu_L7I1P6-TOw-30" value="- research: links[]" style="text;strokeColor=none;fillColor=none;align=left;verticalAlign=top;spacingLeft=4;spacingRight=4;overflow=hidden;rotatable=0;points=[[0,0.5],[1,0.5]];portConstraint=eastwest;whiteSpace=wrap;html=1;" parent="PEpVWC3lu_L7I1P6-TOw-25" vertex="1">
          <mxGeometry y="130" width="166" height="26" as="geometry" />
        </mxCell>
        <mxCell id="PEpVWC3lu_L7I1P6-TOw-31" value="Public Room" style="swimlane;fontStyle=0;childLayout=stackLayout;horizontal=1;startSize=26;fillColor=none;horizontalStack=0;resizeParent=1;resizeParentMax=0;resizeLast=0;collapsible=1;marginBottom=0;whiteSpace=wrap;html=1;" parent="srA7FluS-shETUdFAsvK-187" vertex="1">
          <mxGeometry x="322" y="80" width="170" height="182" as="geometry" />
        </mxCell>
        <mxCell id="PEpVWC3lu_L7I1P6-TOw-32" value="+ id: String {constant}" style="text;strokeColor=none;fillColor=none;align=left;verticalAlign=top;spacingLeft=4;spacingRight=4;overflow=hidden;rotatable=0;points=[[0,0.5],[1,0.5]];portConstraint=eastwest;whiteSpace=wrap;html=1;" parent="PEpVWC3lu_L7I1P6-TOw-31" vertex="1">
          <mxGeometry y="26" width="170" height="26" as="geometry" />
        </mxCell>
        <mxCell id="PEpVWC3lu_L7I1P6-TOw-33" value="+ owner: Teacher" style="text;strokeColor=none;fillColor=none;align=left;verticalAlign=top;spacingLeft=4;spacingRight=4;overflow=hidden;rotatable=0;points=[[0,0.5],[1,0.5]];portConstraint=eastwest;whiteSpace=wrap;html=1;" parent="PEpVWC3lu_L7I1P6-TOw-31" vertex="1">
          <mxGeometry y="52" width="170" height="26" as="geometry" />
        </mxCell>
        <mxCell id="PEpVWC3lu_L7I1P6-TOw-34" value="+ introduction: String" style="text;strokeColor=none;fillColor=none;align=left;verticalAlign=top;spacingLeft=4;spacingRight=4;overflow=hidden;rotatable=0;points=[[0,0.5],[1,0.5]];portConstraint=eastwest;whiteSpace=wrap;html=1;" parent="PEpVWC3lu_L7I1P6-TOw-31" vertex="1">
          <mxGeometry y="78" width="170" height="26" as="geometry" />
        </mxCell>
        <mxCell id="PEpVWC3lu_L7I1P6-TOw-39" value="&amp;nbsp;+ about: String" style="text;strokeColor=none;fillColor=none;align=left;verticalAlign=top;spacingLeft=4;spacingRight=4;overflow=hidden;rotatable=0;points=[[0,0.5],[1,0.5]];portConstraint=eastwest;whiteSpace=wrap;html=1;" parent="PEpVWC3lu_L7I1P6-TOw-31" vertex="1">
          <mxGeometry y="104" width="170" height="26" as="geometry" />
        </mxCell>
        <mxCell id="PEpVWC3lu_L7I1P6-TOw-35" value="+ testimonials: String" style="text;strokeColor=none;fillColor=none;align=left;verticalAlign=top;spacingLeft=4;spacingRight=4;overflow=hidden;rotatable=0;points=[[0,0.5],[1,0.5]];portConstraint=eastwest;whiteSpace=wrap;html=1;" parent="PEpVWC3lu_L7I1P6-TOw-31" vertex="1">
          <mxGeometry y="130" width="170" height="26" as="geometry" />
        </mxCell>
        <mxCell id="PEpVWC3lu_L7I1P6-TOw-37" value="- inquire: Inquiry[]" style="text;strokeColor=none;fillColor=none;align=left;verticalAlign=top;spacingLeft=4;spacingRight=4;overflow=hidden;rotatable=0;points=[[0,0.5],[1,0.5]];portConstraint=eastwest;whiteSpace=wrap;html=1;" parent="PEpVWC3lu_L7I1P6-TOw-31" vertex="1">
          <mxGeometry y="156" width="170" height="26" as="geometry" />
        </mxCell>
        <mxCell id="PEpVWC3lu_L7I1P6-TOw-41" value="" style="endArrow=diamondThin;endFill=1;endSize=24;html=1;rounded=0;entryX=0.499;entryY=1.038;entryDx=0;entryDy=0;entryPerimeter=0;" parent="srA7FluS-shETUdFAsvK-187" target="PEpVWC3lu_L7I1P6-TOw-16" edge="1">
          <mxGeometry width="160" relative="1" as="geometry">
            <mxPoint x="150" y="380" as="sourcePoint" />
            <mxPoint x="480" y="310" as="targetPoint" />
            <Array as="points">
              <mxPoint x="150" y="340" />
            </Array>
          </mxGeometry>
        </mxCell>
        <mxCell id="PEpVWC3lu_L7I1P6-TOw-44" value="1" style="edgeLabel;html=1;align=center;verticalAlign=middle;resizable=0;points=[];" parent="PEpVWC3lu_L7I1P6-TOw-41" vertex="1" connectable="0">
          <mxGeometry x="-0.6455" y="-2" relative="1" as="geometry">
            <mxPoint as="offset" />
          </mxGeometry>
        </mxCell>
        <mxCell id="PEpVWC3lu_L7I1P6-TOw-42" value="" style="endArrow=diamondThin;endFill=1;endSize=24;html=1;rounded=0;exitX=0.5;exitY=0;exitDx=0;exitDy=0;entryX=0.741;entryY=1.176;entryDx=0;entryDy=0;entryPerimeter=0;" parent="srA7FluS-shETUdFAsvK-187" source="PEpVWC3lu_L7I1P6-TOw-25" target="PEpVWC3lu_L7I1P6-TOw-16" edge="1">
          <mxGeometry width="160" relative="1" as="geometry">
            <mxPoint x="380" y="380" as="sourcePoint" />
            <mxPoint x="270" y="280" as="targetPoint" />
            <Array as="points">
              <mxPoint x="333" y="340" />
              <mxPoint x="208" y="340" />
            </Array>
          </mxGeometry>
        </mxCell>
        <mxCell id="PEpVWC3lu_L7I1P6-TOw-45" value="1... n" style="edgeLabel;html=1;align=center;verticalAlign=middle;resizable=0;points=[];" parent="PEpVWC3lu_L7I1P6-TOw-42" vertex="1" connectable="0">
          <mxGeometry x="-0.494" y="3" relative="1" as="geometry">
            <mxPoint x="-45" as="offset" />
          </mxGeometry>
        </mxCell>
        <mxCell id="PEpVWC3lu_L7I1P6-TOw-48" value="" style="endArrow=diamondThin;endFill=1;endSize=24;html=1;rounded=0;exitX=0.175;exitY=0.004;exitDx=0;exitDy=0;entryX=0.203;entryY=1.115;entryDx=0;entryDy=0;entryPerimeter=0;exitPerimeter=0;" parent="srA7FluS-shETUdFAsvK-187" source="PEpVWC3lu_L7I1P6-TOw-11" target="PEpVWC3lu_L7I1P6-TOw-20" edge="1">
          <mxGeometry width="160" relative="1" as="geometry">
            <mxPoint x="122.5" y="641" as="sourcePoint" />
            <mxPoint x="122.5" y="536" as="targetPoint" />
            <Array as="points">
              <mxPoint x="71" y="601" />
            </Array>
          </mxGeometry>
        </mxCell>
        <mxCell id="PEpVWC3lu_L7I1P6-TOw-49" value="1" style="edgeLabel;html=1;align=center;verticalAlign=middle;resizable=0;points=[];" parent="PEpVWC3lu_L7I1P6-TOw-48" vertex="1" connectable="0">
          <mxGeometry x="-0.6455" y="-2" relative="1" as="geometry">
            <mxPoint as="offset" />
          </mxGeometry>
        </mxCell>
        <mxCell id="PEpVWC3lu_L7I1P6-TOw-50" value="Curriculum" style="swimlane;fontStyle=0;childLayout=stackLayout;horizontal=1;startSize=26;fillColor=none;horizontalStack=0;resizeParent=1;resizeParentMax=0;resizeLast=0;collapsible=1;marginBottom=0;whiteSpace=wrap;html=1;" parent="srA7FluS-shETUdFAsvK-187" vertex="1">
          <mxGeometry x="250" y="640" width="166" height="78" as="geometry" />
        </mxCell>
        <mxCell id="PEpVWC3lu_L7I1P6-TOw-51" value="+ brief: String" style="text;strokeColor=none;fillColor=none;align=left;verticalAlign=top;spacingLeft=4;spacingRight=4;overflow=hidden;rotatable=0;points=[[0,0.5],[1,0.5]];portConstraint=eastwest;whiteSpace=wrap;html=1;" parent="PEpVWC3lu_L7I1P6-TOw-50" vertex="1">
          <mxGeometry y="26" width="166" height="26" as="geometry" />
        </mxCell>
        <mxCell id="PEpVWC3lu_L7I1P6-TOw-52" value="- objectives: Objective[]" style="text;strokeColor=none;fillColor=none;align=left;verticalAlign=top;spacingLeft=4;spacingRight=4;overflow=hidden;rotatable=0;points=[[0,0.5],[1,0.5]];portConstraint=eastwest;whiteSpace=wrap;html=1;" parent="PEpVWC3lu_L7I1P6-TOw-50" vertex="1">
          <mxGeometry y="52" width="166" height="26" as="geometry" />
        </mxCell>
        <mxCell id="PEpVWC3lu_L7I1P6-TOw-56" value="" style="endArrow=diamondThin;endFill=1;endSize=24;html=1;rounded=0;exitX=0.799;exitY=0;exitDx=0;exitDy=0;entryX=0.4;entryY=1.154;entryDx=0;entryDy=0;entryPerimeter=0;exitPerimeter=0;" parent="srA7FluS-shETUdFAsvK-187" target="PEpVWC3lu_L7I1P6-TOw-20" edge="1">
          <mxGeometry width="160" relative="1" as="geometry">
            <mxPoint x="310" y="635" as="sourcePoint" />
            <mxPoint x="310" y="530" as="targetPoint" />
            <Array as="points">
              <mxPoint x="310" y="620" />
              <mxPoint x="110" y="620" />
            </Array>
          </mxGeometry>
        </mxCell>
        <mxCell id="PEpVWC3lu_L7I1P6-TOw-57" value="1" style="edgeLabel;html=1;align=center;verticalAlign=middle;resizable=0;points=[];" parent="PEpVWC3lu_L7I1P6-TOw-56" vertex="1" connectable="0">
          <mxGeometry x="-0.6455" y="-2" relative="1" as="geometry">
            <mxPoint x="-93" as="offset" />
          </mxGeometry>
        </mxCell>
        <mxCell id="PEpVWC3lu_L7I1P6-TOw-58" value="Objective" style="swimlane;fontStyle=0;childLayout=stackLayout;horizontal=1;startSize=26;fillColor=none;horizontalStack=0;resizeParent=1;resizeParentMax=0;resizeLast=0;collapsible=1;marginBottom=0;whiteSpace=wrap;html=1;" parent="srA7FluS-shETUdFAsvK-187" vertex="1">
          <mxGeometry x="150" y="840" width="166" height="78" as="geometry" />
        </mxCell>
        <mxCell id="PEpVWC3lu_L7I1P6-TOw-59" value="+ id: String" style="text;strokeColor=none;fillColor=none;align=left;verticalAlign=top;spacingLeft=4;spacingRight=4;overflow=hidden;rotatable=0;points=[[0,0.5],[1,0.5]];portConstraint=eastwest;whiteSpace=wrap;html=1;" parent="PEpVWC3lu_L7I1P6-TOw-58" vertex="1">
          <mxGeometry y="26" width="166" height="26" as="geometry" />
        </mxCell>
        <mxCell id="PEpVWC3lu_L7I1P6-TOw-60" value="- value: String" style="text;strokeColor=none;fillColor=none;align=left;verticalAlign=top;spacingLeft=4;spacingRight=4;overflow=hidden;rotatable=0;points=[[0,0.5],[1,0.5]];portConstraint=eastwest;whiteSpace=wrap;html=1;" parent="PEpVWC3lu_L7I1P6-TOw-58" vertex="1">
          <mxGeometry y="52" width="166" height="26" as="geometry" />
        </mxCell>
        <mxCell id="PEpVWC3lu_L7I1P6-TOw-61" value="" style="endArrow=diamondThin;endFill=0;endSize=24;html=1;rounded=0;entryX=1;entryY=0.5;entryDx=0;entryDy=0;exitX=0.908;exitY=0.026;exitDx=0;exitDy=0;exitPerimeter=0;" parent="srA7FluS-shETUdFAsvK-187" source="PEpVWC3lu_L7I1P6-TOw-58" target="PEpVWC3lu_L7I1P6-TOw-28" edge="1">
          <mxGeometry width="160" relative="1" as="geometry">
            <mxPoint x="420" y="830" as="sourcePoint" />
            <mxPoint x="590" y="830" as="targetPoint" />
            <Array as="points">
              <mxPoint x="300" y="740" />
              <mxPoint x="470" y="740" />
              <mxPoint x="470" y="471" />
            </Array>
          </mxGeometry>
        </mxCell>
        <mxCell id="PEpVWC3lu_L7I1P6-TOw-77" value="1" style="edgeLabel;html=1;align=center;verticalAlign=middle;resizable=0;points=[];" parent="PEpVWC3lu_L7I1P6-TOw-61" vertex="1" connectable="0">
          <mxGeometry x="-0.9411" y="-2" relative="1" as="geometry">
            <mxPoint as="offset" />
          </mxGeometry>
        </mxCell>
        <mxCell id="PEpVWC3lu_L7I1P6-TOw-62" value="Question" style="swimlane;fontStyle=0;childLayout=stackLayout;horizontal=1;startSize=26;fillColor=none;horizontalStack=0;resizeParent=1;resizeParentMax=0;resizeLast=0;collapsible=1;marginBottom=0;whiteSpace=wrap;html=1;" parent="srA7FluS-shETUdFAsvK-187" vertex="1">
          <mxGeometry x="544" y="640" width="196" height="130" as="geometry" />
        </mxCell>
        <mxCell id="PEpVWC3lu_L7I1P6-TOw-63" value="+ type: QuestionType {constant}" style="text;strokeColor=none;fillColor=none;align=left;verticalAlign=top;spacingLeft=4;spacingRight=4;overflow=hidden;rotatable=0;points=[[0,0.5],[1,0.5]];portConstraint=eastwest;whiteSpace=wrap;html=1;" parent="PEpVWC3lu_L7I1P6-TOw-62" vertex="1">
          <mxGeometry y="26" width="196" height="26" as="geometry" />
        </mxCell>
        <mxCell id="PEpVWC3lu_L7I1P6-TOw-64" value="+ brief: String" style="text;strokeColor=none;fillColor=none;align=left;verticalAlign=top;spacingLeft=4;spacingRight=4;overflow=hidden;rotatable=0;points=[[0,0.5],[1,0.5]];portConstraint=eastwest;whiteSpace=wrap;html=1;" parent="PEpVWC3lu_L7I1P6-TOw-62" vertex="1">
          <mxGeometry y="52" width="196" height="26" as="geometry" />
        </mxCell>
        <mxCell id="PEpVWC3lu_L7I1P6-TOw-65" value="- answer: String" style="text;strokeColor=none;fillColor=none;align=left;verticalAlign=top;spacingLeft=4;spacingRight=4;overflow=hidden;rotatable=0;points=[[0,0.5],[1,0.5]];portConstraint=eastwest;whiteSpace=wrap;html=1;" parent="PEpVWC3lu_L7I1P6-TOw-62" vertex="1">
          <mxGeometry y="78" width="196" height="26" as="geometry" />
        </mxCell>
        <mxCell id="PEpVWC3lu_L7I1P6-TOw-66" value="- options: AnswerOption[]" style="text;strokeColor=none;fillColor=none;align=left;verticalAlign=top;spacingLeft=4;spacingRight=4;overflow=hidden;rotatable=0;points=[[0,0.5],[1,0.5]];portConstraint=eastwest;whiteSpace=wrap;html=1;" parent="PEpVWC3lu_L7I1P6-TOw-62" vertex="1">
          <mxGeometry y="104" width="196" height="26" as="geometry" />
        </mxCell>
        <mxCell id="PEpVWC3lu_L7I1P6-TOw-67" value="AnswerOption" style="swimlane;fontStyle=0;childLayout=stackLayout;horizontal=1;startSize=26;fillColor=none;horizontalStack=0;resizeParent=1;resizeParentMax=0;resizeLast=0;collapsible=1;marginBottom=0;whiteSpace=wrap;html=1;" parent="srA7FluS-shETUdFAsvK-187" vertex="1">
          <mxGeometry x="340" y="930" width="166" height="78" as="geometry" />
        </mxCell>
        <mxCell id="PEpVWC3lu_L7I1P6-TOw-68" value="+ id: String" style="text;strokeColor=none;fillColor=none;align=left;verticalAlign=top;spacingLeft=4;spacingRight=4;overflow=hidden;rotatable=0;points=[[0,0.5],[1,0.5]];portConstraint=eastwest;whiteSpace=wrap;html=1;" parent="PEpVWC3lu_L7I1P6-TOw-67" vertex="1">
          <mxGeometry y="26" width="166" height="26" as="geometry" />
        </mxCell>
        <mxCell id="PEpVWC3lu_L7I1P6-TOw-69" value="- value: String" style="text;strokeColor=none;fillColor=none;align=left;verticalAlign=top;spacingLeft=4;spacingRight=4;overflow=hidden;rotatable=0;points=[[0,0.5],[1,0.5]];portConstraint=eastwest;whiteSpace=wrap;html=1;" parent="PEpVWC3lu_L7I1P6-TOw-67" vertex="1">
          <mxGeometry y="52" width="166" height="26" as="geometry" />
        </mxCell>
        <mxCell id="PEpVWC3lu_L7I1P6-TOw-70" value="&lt;p style=&quot;margin:0px;margin-top:4px;text-align:center;&quot;&gt;&lt;i&gt;&amp;lt;&amp;lt;Enumeration&amp;gt;&amp;gt;&lt;/i&gt;&lt;br&gt;&lt;b&gt;QuestionType&lt;/b&gt;&lt;/p&gt;&lt;hr size=&quot;1&quot;&gt;&lt;p style=&quot;margin:0px;margin-left:4px;&quot;&gt;MULTIPLE_CHOICE&lt;/p&gt;&lt;p style=&quot;margin:0px;margin-left:4px;&quot;&gt;MULTI_SELECT&lt;/p&gt;&lt;p style=&quot;margin:0px;margin-left:4px;&quot;&gt;SHORT_ANSWER&lt;/p&gt;&lt;p style=&quot;margin:0px;margin-left:4px;&quot;&gt;LONG_ANSWER&lt;/p&gt;&lt;p style=&quot;margin:0px;margin-left:4px;&quot;&gt;UPLOAD&lt;/p&gt;&lt;p style=&quot;margin:0px;margin-left:4px;&quot;&gt;&lt;br&gt;&lt;/p&gt;" style="verticalAlign=top;align=left;overflow=fill;fontSize=12;fontFamily=Helvetica;html=1;whiteSpace=wrap;" parent="srA7FluS-shETUdFAsvK-187" vertex="1">
          <mxGeometry x="600" y="888" width="190" height="120" as="geometry" />
        </mxCell>
        <mxCell id="PEpVWC3lu_L7I1P6-TOw-71" value="" style="endArrow=diamondThin;endFill=1;endSize=24;html=1;rounded=0;exitX=0.711;exitY=0.009;exitDx=0;exitDy=0;entryX=0.136;entryY=1.131;entryDx=0;entryDy=0;entryPerimeter=0;exitPerimeter=0;" parent="srA7FluS-shETUdFAsvK-187" source="PEpVWC3lu_L7I1P6-TOw-67" target="PEpVWC3lu_L7I1P6-TOw-66" edge="1">
          <mxGeometry width="160" relative="1" as="geometry">
            <mxPoint x="390" y="870" as="sourcePoint" />
            <mxPoint x="685" y="820" as="targetPoint" />
            <Array as="points">
              <mxPoint x="460" y="880" />
              <mxPoint x="570" y="880" />
            </Array>
          </mxGeometry>
        </mxCell>
        <mxCell id="PEpVWC3lu_L7I1P6-TOw-73" value="1 ... 4" style="edgeLabel;html=1;align=center;verticalAlign=middle;resizable=0;points=[];" parent="PEpVWC3lu_L7I1P6-TOw-71" vertex="1" connectable="0">
          <mxGeometry x="-0.9132" y="-1" relative="1" as="geometry">
            <mxPoint as="offset" />
          </mxGeometry>
        </mxCell>
        <mxCell id="PEpVWC3lu_L7I1P6-TOw-74" value="" style="endArrow=diamondThin;endFill=1;endSize=24;html=1;rounded=0;exitX=0.5;exitY=0;exitDx=0;exitDy=0;entryX=0.547;entryY=1.177;entryDx=0;entryDy=0;entryPerimeter=0;" parent="srA7FluS-shETUdFAsvK-187" source="PEpVWC3lu_L7I1P6-TOw-62" target="PEpVWC3lu_L7I1P6-TOw-20" edge="1">
          <mxGeometry width="160" relative="1" as="geometry">
            <mxPoint x="640" y="620" as="sourcePoint" />
            <mxPoint x="220" y="570" as="targetPoint" />
            <Array as="points">
              <mxPoint x="640" y="600" />
              <mxPoint x="139" y="600" />
            </Array>
          </mxGeometry>
        </mxCell>
        <mxCell id="PEpVWC3lu_L7I1P6-TOw-75" value="1 ... n" style="edgeLabel;html=1;align=center;verticalAlign=middle;resizable=0;points=[];" parent="PEpVWC3lu_L7I1P6-TOw-74" vertex="1" connectable="0">
          <mxGeometry x="-0.9205" y="-3" relative="1" as="geometry">
            <mxPoint x="-438" y="-21" as="offset" />
          </mxGeometry>
        </mxCell>
        <mxCell id="PEpVWC3lu_L7I1P6-TOw-85" value="Inquiry" style="swimlane;fontStyle=0;childLayout=stackLayout;horizontal=1;startSize=26;fillColor=none;horizontalStack=0;resizeParent=1;resizeParentMax=0;resizeLast=0;collapsible=1;marginBottom=0;whiteSpace=wrap;html=1;" parent="srA7FluS-shETUdFAsvK-187" vertex="1">
          <mxGeometry x="500" y="380" width="166" height="156" as="geometry" />
        </mxCell>
        <mxCell id="PEpVWC3lu_L7I1P6-TOw-86" value="+ id: String {constant}" style="text;strokeColor=none;fillColor=none;align=left;verticalAlign=top;spacingLeft=4;spacingRight=4;overflow=hidden;rotatable=0;points=[[0,0.5],[1,0.5]];portConstraint=eastwest;whiteSpace=wrap;html=1;" parent="PEpVWC3lu_L7I1P6-TOw-85" vertex="1">
          <mxGeometry y="26" width="166" height="26" as="geometry" />
        </mxCell>
        <mxCell id="PEpVWC3lu_L7I1P6-TOw-87" value="- date: Date" style="text;strokeColor=none;fillColor=none;align=left;verticalAlign=top;spacingLeft=4;spacingRight=4;overflow=hidden;rotatable=0;points=[[0,0.5],[1,0.5]];portConstraint=eastwest;whiteSpace=wrap;html=1;" parent="PEpVWC3lu_L7I1P6-TOw-85" vertex="1">
          <mxGeometry y="52" width="166" height="26" as="geometry" />
        </mxCell>
        <mxCell id="PEpVWC3lu_L7I1P6-TOw-88" value="-&amp;nbsp; name: String" style="text;strokeColor=none;fillColor=none;align=left;verticalAlign=top;spacingLeft=4;spacingRight=4;overflow=hidden;rotatable=0;points=[[0,0.5],[1,0.5]];portConstraint=eastwest;whiteSpace=wrap;html=1;" parent="PEpVWC3lu_L7I1P6-TOw-85" vertex="1">
          <mxGeometry y="78" width="166" height="26" as="geometry" />
        </mxCell>
        <mxCell id="PEpVWC3lu_L7I1P6-TOw-89" value="- contact: String" style="text;strokeColor=none;fillColor=none;align=left;verticalAlign=top;spacingLeft=4;spacingRight=4;overflow=hidden;rotatable=0;points=[[0,0.5],[1,0.5]];portConstraint=eastwest;whiteSpace=wrap;html=1;" parent="PEpVWC3lu_L7I1P6-TOw-85" vertex="1">
          <mxGeometry y="104" width="166" height="26" as="geometry" />
        </mxCell>
        <mxCell id="PEpVWC3lu_L7I1P6-TOw-90" value="- message: String" style="text;strokeColor=none;fillColor=none;align=left;verticalAlign=top;spacingLeft=4;spacingRight=4;overflow=hidden;rotatable=0;points=[[0,0.5],[1,0.5]];portConstraint=eastwest;whiteSpace=wrap;html=1;" parent="PEpVWC3lu_L7I1P6-TOw-85" vertex="1">
          <mxGeometry y="130" width="166" height="26" as="geometry" />
        </mxCell>
        <mxCell id="PEpVWC3lu_L7I1P6-TOw-92" value="" style="endArrow=diamondThin;endFill=0;endSize=24;html=1;rounded=0;entryX=0.552;entryY=1.143;entryDx=0;entryDy=0;entryPerimeter=0;exitX=0.072;exitY=-0.009;exitDx=0;exitDy=0;exitPerimeter=0;" parent="srA7FluS-shETUdFAsvK-187" source="PEpVWC3lu_L7I1P6-TOw-85" target="PEpVWC3lu_L7I1P6-TOw-37" edge="1">
          <mxGeometry width="160" relative="1" as="geometry">
            <mxPoint x="510" y="370" as="sourcePoint" />
            <mxPoint x="790" y="280" as="targetPoint" />
            <Array as="points">
              <mxPoint x="510" y="340" />
              <mxPoint x="416" y="340" />
            </Array>
          </mxGeometry>
        </mxCell>
        <mxCell id="PEpVWC3lu_L7I1P6-TOw-143" value="Institure room" style="swimlane;fontStyle=0;childLayout=stackLayout;horizontal=1;startSize=26;fillColor=none;horizontalStack=0;resizeParent=1;resizeParentMax=0;resizeLast=0;collapsible=1;marginBottom=0;whiteSpace=wrap;html=1;" parent="srA7FluS-shETUdFAsvK-187" vertex="1">
          <mxGeometry x="557" y="54" width="203" height="208" as="geometry" />
        </mxCell>
        <mxCell id="PEpVWC3lu_L7I1P6-TOw-144" value="+ id: String {constant}" style="text;strokeColor=none;fillColor=none;align=left;verticalAlign=top;spacingLeft=4;spacingRight=4;overflow=hidden;rotatable=0;points=[[0,0.5],[1,0.5]];portConstraint=eastwest;whiteSpace=wrap;html=1;" parent="PEpVWC3lu_L7I1P6-TOw-143" vertex="1">
          <mxGeometry y="26" width="203" height="26" as="geometry" />
        </mxCell>
        <mxCell id="PEpVWC3lu_L7I1P6-TOw-145" value="+ owner: SchoolAdmin" style="text;strokeColor=none;fillColor=none;align=left;verticalAlign=top;spacingLeft=4;spacingRight=4;overflow=hidden;rotatable=0;points=[[0,0.5],[1,0.5]];portConstraint=eastwest;whiteSpace=wrap;html=1;" parent="PEpVWC3lu_L7I1P6-TOw-143" vertex="1">
          <mxGeometry y="52" width="203" height="26" as="geometry" />
        </mxCell>
        <mxCell id="PEpVWC3lu_L7I1P6-TOw-146" value="+ introduction: String" style="text;strokeColor=none;fillColor=none;align=left;verticalAlign=top;spacingLeft=4;spacingRight=4;overflow=hidden;rotatable=0;points=[[0,0.5],[1,0.5]];portConstraint=eastwest;whiteSpace=wrap;html=1;" parent="PEpVWC3lu_L7I1P6-TOw-143" vertex="1">
          <mxGeometry y="78" width="203" height="26" as="geometry" />
        </mxCell>
        <mxCell id="PEpVWC3lu_L7I1P6-TOw-147" value="&amp;nbsp;+ about: String" style="text;strokeColor=none;fillColor=none;align=left;verticalAlign=top;spacingLeft=4;spacingRight=4;overflow=hidden;rotatable=0;points=[[0,0.5],[1,0.5]];portConstraint=eastwest;whiteSpace=wrap;html=1;" parent="PEpVWC3lu_L7I1P6-TOw-143" vertex="1">
          <mxGeometry y="104" width="203" height="26" as="geometry" />
        </mxCell>
        <mxCell id="PEpVWC3lu_L7I1P6-TOw-150" value="+ publicRooms: PublicRooms[]" style="text;strokeColor=none;fillColor=none;align=left;verticalAlign=top;spacingLeft=4;spacingRight=4;overflow=hidden;rotatable=0;points=[[0,0.5],[1,0.5]];portConstraint=eastwest;whiteSpace=wrap;html=1;" parent="PEpVWC3lu_L7I1P6-TOw-143" vertex="1">
          <mxGeometry y="130" width="203" height="26" as="geometry" />
        </mxCell>
        <mxCell id="PEpVWC3lu_L7I1P6-TOw-148" value="+ testimonials: String" style="text;strokeColor=none;fillColor=none;align=left;verticalAlign=top;spacingLeft=4;spacingRight=4;overflow=hidden;rotatable=0;points=[[0,0.5],[1,0.5]];portConstraint=eastwest;whiteSpace=wrap;html=1;" parent="PEpVWC3lu_L7I1P6-TOw-143" vertex="1">
          <mxGeometry y="156" width="203" height="26" as="geometry" />
        </mxCell>
        <mxCell id="PEpVWC3lu_L7I1P6-TOw-149" value="- inquire: Inquiry[]" style="text;strokeColor=none;fillColor=none;align=left;verticalAlign=top;spacingLeft=4;spacingRight=4;overflow=hidden;rotatable=0;points=[[0,0.5],[1,0.5]];portConstraint=eastwest;whiteSpace=wrap;html=1;" parent="PEpVWC3lu_L7I1P6-TOw-143" vertex="1">
          <mxGeometry y="182" width="203" height="26" as="geometry" />
        </mxCell>
        <mxCell id="PEpVWC3lu_L7I1P6-TOw-153" value="" style="endArrow=diamondThin;endFill=0;endSize=24;html=1;rounded=0;exitX=0.544;exitY=0;exitDx=0;exitDy=0;entryX=0.153;entryY=1.051;entryDx=0;entryDy=0;entryPerimeter=0;exitPerimeter=0;" parent="srA7FluS-shETUdFAsvK-187" source="PEpVWC3lu_L7I1P6-TOw-85" target="PEpVWC3lu_L7I1P6-TOw-149" edge="1">
          <mxGeometry width="160" relative="1" as="geometry">
            <mxPoint x="628" y="412" as="sourcePoint" />
            <mxPoint x="426" y="276" as="targetPoint" />
            <Array as="points" />
          </mxGeometry>
        </mxCell>
        <mxCell id="ZeQfbBNh24i9MI3Sl9Xb-0" value="Link" style="swimlane;fontStyle=0;childLayout=stackLayout;horizontal=1;startSize=26;fillColor=none;horizontalStack=0;resizeParent=1;resizeParentMax=0;resizeLast=0;collapsible=1;marginBottom=0;whiteSpace=wrap;html=1;" parent="srA7FluS-shETUdFAsvK-187" vertex="1">
          <mxGeometry x="40" y="930" width="166" height="78" as="geometry" />
        </mxCell>
        <mxCell id="ZeQfbBNh24i9MI3Sl9Xb-3" value="+ id: String" style="text;strokeColor=none;fillColor=none;align=left;verticalAlign=top;spacingLeft=4;spacingRight=4;overflow=hidden;rotatable=0;points=[[0,0.5],[1,0.5]];portConstraint=eastwest;whiteSpace=wrap;html=1;" parent="ZeQfbBNh24i9MI3Sl9Xb-0" vertex="1">
          <mxGeometry y="26" width="166" height="26" as="geometry" />
        </mxCell>
        <mxCell id="ZeQfbBNh24i9MI3Sl9Xb-4" value="- location: String" style="text;strokeColor=none;fillColor=none;align=left;verticalAlign=top;spacingLeft=4;spacingRight=4;overflow=hidden;rotatable=0;points=[[0,0.5],[1,0.5]];portConstraint=eastwest;whiteSpace=wrap;html=1;" parent="ZeQfbBNh24i9MI3Sl9Xb-0" vertex="1">
          <mxGeometry y="52" width="166" height="26" as="geometry" />
        </mxCell>
        <mxCell id="ZeQfbBNh24i9MI3Sl9Xb-5" value="" style="endArrow=diamondThin;endFill=0;endSize=24;html=1;rounded=0;entryX=0.478;entryY=0.929;entryDx=0;entryDy=0;entryPerimeter=0;exitX=0.205;exitY=-0.004;exitDx=0;exitDy=0;exitPerimeter=0;" parent="srA7FluS-shETUdFAsvK-187" source="PEpVWC3lu_L7I1P6-TOw-70" target="PEpVWC3lu_L7I1P6-TOw-66" edge="1">
          <mxGeometry width="160" relative="1" as="geometry">
            <mxPoint x="642" y="880" as="sourcePoint" />
            <mxPoint x="641.5" y="774" as="targetPoint" />
          </mxGeometry>
        </mxCell>
        <mxCell id="PEpVWC3lu_L7I1P6-TOw-72" value="" style="endArrow=diamondThin;endFill=0;endSize=24;html=1;rounded=0;exitX=0.5;exitY=0;exitDx=0;exitDy=0;" parent="srA7FluS-shETUdFAsvK-187" source="ZeQfbBNh24i9MI3Sl9Xb-0" target="PEpVWC3lu_L7I1P6-TOw-23" edge="1">
          <mxGeometry width="160" relative="1" as="geometry">
            <mxPoint x="118.63" y="881.79" as="sourcePoint" />
            <mxPoint x="117.36199999999997" y="796.002" as="targetPoint" />
          </mxGeometry>
        </mxCell>
        <mxCell id="PEpVWC3lu_L7I1P6-TOw-76" value="" style="endArrow=diamondThin;endFill=0;endSize=24;html=1;rounded=0;exitX=0.75;exitY=0;exitDx=0;exitDy=0;" parent="srA7FluS-shETUdFAsvK-187" source="PEpVWC3lu_L7I1P6-TOw-58" edge="1">
          <mxGeometry width="160" relative="1" as="geometry">
            <mxPoint x="366" y="860" as="sourcePoint" />
            <mxPoint x="275" y="720" as="targetPoint" />
            <Array as="points" />
          </mxGeometry>
        </mxCell>
        <mxCell id="PEpVWC3lu_L7I1P6-TOw-78" value="1... n" style="edgeLabel;html=1;align=center;verticalAlign=middle;resizable=0;points=[];" parent="PEpVWC3lu_L7I1P6-TOw-76" vertex="1" connectable="0">
          <mxGeometry x="-0.7929" y="-2" relative="1" as="geometry">
            <mxPoint x="-2" y="-45" as="offset" />
          </mxGeometry>
        </mxCell>
        <mxCell id="ZeQfbBNh24i9MI3Sl9Xb-6" value="Schedule" style="swimlane;fontStyle=0;childLayout=stackLayout;horizontal=1;startSize=26;fillColor=none;horizontalStack=0;resizeParent=1;resizeParentMax=0;resizeLast=0;collapsible=1;marginBottom=0;whiteSpace=wrap;html=1;" parent="srA7FluS-shETUdFAsvK-187" vertex="1">
          <mxGeometry x="366" y="750" width="166" height="104" as="geometry" />
        </mxCell>
        <mxCell id="ZeQfbBNh24i9MI3Sl9Xb-7" value="+ name: String" style="text;strokeColor=none;fillColor=none;align=left;verticalAlign=top;spacingLeft=4;spacingRight=4;overflow=hidden;rotatable=0;points=[[0,0.5],[1,0.5]];portConstraint=eastwest;whiteSpace=wrap;html=1;" parent="ZeQfbBNh24i9MI3Sl9Xb-6" vertex="1">
          <mxGeometry y="26" width="166" height="26" as="geometry" />
        </mxCell>
        <mxCell id="ZeQfbBNh24i9MI3Sl9Xb-8" value="- dateTime: DateTime" style="text;strokeColor=none;fillColor=none;align=left;verticalAlign=top;spacingLeft=4;spacingRight=4;overflow=hidden;rotatable=0;points=[[0,0.5],[1,0.5]];portConstraint=eastwest;whiteSpace=wrap;html=1;" parent="ZeQfbBNh24i9MI3Sl9Xb-6" vertex="1">
          <mxGeometry y="52" width="166" height="26" as="geometry" />
        </mxCell>
        <mxCell id="ZeQfbBNh24i9MI3Sl9Xb-11" value="- details: String" style="text;strokeColor=none;fillColor=none;align=left;verticalAlign=top;spacingLeft=4;spacingRight=4;overflow=hidden;rotatable=0;points=[[0,0.5],[1,0.5]];portConstraint=eastwest;whiteSpace=wrap;html=1;" parent="ZeQfbBNh24i9MI3Sl9Xb-6" vertex="1">
          <mxGeometry y="78" width="166" height="26" as="geometry" />
        </mxCell>
        <mxCell id="PEpVWC3lu_L7I1P6-TOw-1" value="Comments" style="swimlane;whiteSpace=wrap;html=1;" parent="WIyWlLk6GJQsqaUBKTNV-1" vertex="1">
          <mxGeometry x="-240" y="10" width="200" height="770" as="geometry" />
        </mxCell>
        <mxCell id="PEpVWC3lu_L7I1P6-TOw-0" value="&lt;h1&gt;Notes&lt;/h1&gt;&lt;div&gt;&lt;br&gt;&lt;/div&gt;&lt;div&gt;1. token: unique ID per sessions. Will need some kind of cookie so visitors can be identified&lt;/div&gt;&lt;div&gt;&lt;br&gt;&lt;/div&gt;&lt;div&gt;2 visitor user to be made as a temporary guest when new inquiries are made&lt;/div&gt;&lt;div&gt;&lt;br&gt;&lt;/div&gt;&lt;div&gt;3.&amp;nbsp;&amp;nbsp;&lt;/div&gt;" style="text;html=1;strokeColor=none;fillColor=none;spacing=5;spacingTop=-20;whiteSpace=wrap;overflow=hidden;rounded=0;" parent="PEpVWC3lu_L7I1P6-TOw-1" vertex="1">
          <mxGeometry x="5" y="32" width="190" height="738" as="geometry" />
        </mxCell>
        <mxCell id="PEpVWC3lu_L7I1P6-TOw-93" value="" style="endArrow=diamondThin;endFill=0;endSize=24;html=1;rounded=0;exitX=0.048;exitY=1.088;exitDx=0;exitDy=0;entryX=0.865;entryY=-0.009;entryDx=0;entryDy=0;exitPerimeter=0;entryPerimeter=0;" parent="WIyWlLk6GJQsqaUBKTNV-1" source="srA7FluS-shETUdFAsvK-72" target="PEpVWC3lu_L7I1P6-TOw-2" edge="1">
          <mxGeometry width="160" relative="1" as="geometry">
            <mxPoint x="392" y="686" as="sourcePoint" />
            <mxPoint x="390" y="600" as="targetPoint" />
          </mxGeometry>
        </mxCell>
        <mxCell id="PEpVWC3lu_L7I1P6-TOw-100" value="1" style="edgeLabel;html=1;align=center;verticalAlign=middle;resizable=0;points=[];" parent="PEpVWC3lu_L7I1P6-TOw-93" vertex="1" connectable="0">
          <mxGeometry x="0.3848" y="2" relative="1" as="geometry">
            <mxPoint as="offset" />
          </mxGeometry>
        </mxCell>
        <mxCell id="PEpVWC3lu_L7I1P6-TOw-94" value="" style="endArrow=diamondThin;endFill=0;endSize=24;html=1;rounded=0;entryX=0.5;entryY=0;entryDx=0;entryDy=0;exitX=0.497;exitY=0.98;exitDx=0;exitDy=0;exitPerimeter=0;" parent="WIyWlLk6GJQsqaUBKTNV-1" source="srA7FluS-shETUdFAsvK-72" target="PEpVWC3lu_L7I1P6-TOw-31" edge="1">
          <mxGeometry width="160" relative="1" as="geometry">
            <mxPoint x="370" y="440" as="sourcePoint" />
            <mxPoint x="330" y="870" as="targetPoint" />
            <Array as="points">
              <mxPoint x="321" y="720" />
              <mxPoint x="420" y="720" />
            </Array>
          </mxGeometry>
        </mxCell>
        <mxCell id="PEpVWC3lu_L7I1P6-TOw-101" value="1" style="edgeLabel;html=1;align=center;verticalAlign=middle;resizable=0;points=[];" parent="PEpVWC3lu_L7I1P6-TOw-94" vertex="1" connectable="0">
          <mxGeometry x="0.1855" y="-2" relative="1" as="geometry">
            <mxPoint as="offset" />
          </mxGeometry>
        </mxCell>
        <mxCell id="PEpVWC3lu_L7I1P6-TOw-98" value="" style="endArrow=diamondThin;endFill=0;endSize=24;html=1;rounded=0;exitX=0.494;exitY=1.128;exitDx=0;exitDy=0;entryX=0.675;entryY=0.006;entryDx=0;entryDy=0;exitPerimeter=0;entryPerimeter=0;" parent="WIyWlLk6GJQsqaUBKTNV-1" source="srA7FluS-shETUdFAsvK-47" target="PEpVWC3lu_L7I1P6-TOw-2" edge="1">
          <mxGeometry width="160" relative="1" as="geometry">
            <mxPoint x="330" y="446" as="sourcePoint" />
            <mxPoint x="330" y="870" as="targetPoint" />
            <Array as="points">
              <mxPoint x="120" y="480" />
              <mxPoint x="202" y="480" />
            </Array>
          </mxGeometry>
        </mxCell>
        <mxCell id="PEpVWC3lu_L7I1P6-TOw-99" value="1 ... n" style="edgeLabel;html=1;align=center;verticalAlign=middle;resizable=0;points=[];" parent="PEpVWC3lu_L7I1P6-TOw-98" vertex="1" connectable="0">
          <mxGeometry x="0.3692" relative="1" as="geometry">
            <mxPoint as="offset" />
          </mxGeometry>
        </mxCell>
        <mxCell id="PEpVWC3lu_L7I1P6-TOw-102" value="Comments" style="swimlane;whiteSpace=wrap;html=1;" parent="WIyWlLk6GJQsqaUBKTNV-1" vertex="1">
          <mxGeometry x="-235" y="820" width="200" height="1020" as="geometry" />
        </mxCell>
        <mxCell id="PEpVWC3lu_L7I1P6-TOw-8" value="&lt;h1&gt;Notes&lt;/h1&gt;&lt;div&gt;&lt;br&gt;&lt;/div&gt;&lt;div&gt;1. Remember to explore the LTI standard&lt;/div&gt;&lt;div&gt;&lt;br&gt;&lt;/div&gt;&lt;div&gt;2.&amp;nbsp;&lt;/div&gt;" style="text;html=1;strokeColor=none;fillColor=none;spacing=5;spacingTop=-20;whiteSpace=wrap;overflow=hidden;rounded=0;" parent="PEpVWC3lu_L7I1P6-TOw-102" vertex="1">
          <mxGeometry x="5" y="32" width="190" height="988" as="geometry" />
        </mxCell>
        <mxCell id="PEpVWC3lu_L7I1P6-TOw-151" value="" style="endArrow=diamondThin;endFill=0;endSize=24;html=1;rounded=0;entryX=0.561;entryY=-0.002;entryDx=0;entryDy=0;entryPerimeter=0;" parent="WIyWlLk6GJQsqaUBKTNV-1" target="PEpVWC3lu_L7I1P6-TOw-143" edge="1">
          <mxGeometry width="160" relative="1" as="geometry">
            <mxPoint x="520" y="440" as="sourcePoint" />
            <mxPoint x="427" y="910" as="targetPoint" />
            <Array as="points">
              <mxPoint x="520" y="720" />
              <mxPoint x="680" y="720" />
            </Array>
          </mxGeometry>
        </mxCell>
        <mxCell id="PEpVWC3lu_L7I1P6-TOw-152" value="1" style="edgeLabel;html=1;align=center;verticalAlign=middle;resizable=0;points=[];" parent="PEpVWC3lu_L7I1P6-TOw-151" vertex="1" connectable="0">
          <mxGeometry x="0.1855" y="-2" relative="1" as="geometry">
            <mxPoint as="offset" />
          </mxGeometry>
        </mxCell>
        <mxCell id="PEpVWC3lu_L7I1P6-TOw-154" value="" style="endArrow=none;html=1;rounded=0;entryX=0.475;entryY=1.017;entryDx=0;entryDy=0;entryPerimeter=0;exitX=0.75;exitY=0;exitDx=0;exitDy=0;" parent="WIyWlLk6GJQsqaUBKTNV-1" source="PEpVWC3lu_L7I1P6-TOw-31" target="srA7FluS-shETUdFAsvK-112" edge="1">
          <mxGeometry width="50" height="50" relative="1" as="geometry">
            <mxPoint x="630" y="690" as="sourcePoint" />
            <mxPoint x="680" y="640" as="targetPoint" />
            <Array as="points">
              <mxPoint x="460" y="680" />
              <mxPoint x="687" y="680" />
            </Array>
          </mxGeometry>
        </mxCell>
        <mxCell id="PEpVWC3lu_L7I1P6-TOw-155" value="" style="endArrow=none;html=1;rounded=0;entryX=0.679;entryY=1;entryDx=0;entryDy=0;entryPerimeter=0;exitX=0.75;exitY=0;exitDx=0;exitDy=0;" parent="WIyWlLk6GJQsqaUBKTNV-1" source="PEpVWC3lu_L7I1P6-TOw-143" target="srA7FluS-shETUdFAsvK-112" edge="1">
          <mxGeometry width="50" height="50" relative="1" as="geometry">
            <mxPoint x="470" y="910" as="sourcePoint" />
            <mxPoint x="697" y="630" as="targetPoint" />
            <Array as="points">
              <mxPoint x="720" y="730" />
            </Array>
          </mxGeometry>
        </mxCell>
        <mxCell id="ZeQfbBNh24i9MI3Sl9Xb-9" value="" style="endArrow=diamondThin;endFill=1;endSize=24;html=1;rounded=0;entryX=0.701;entryY=1.126;entryDx=0;entryDy=0;entryPerimeter=0;" parent="WIyWlLk6GJQsqaUBKTNV-1" target="PEpVWC3lu_L7I1P6-TOw-20" edge="1">
          <mxGeometry width="160" relative="1" as="geometry">
            <mxPoint x="520" y="1500" as="sourcePoint" />
            <mxPoint x="180" y="1360" as="targetPoint" />
            <Array as="points">
              <mxPoint x="520" y="1470" />
              <mxPoint x="520" y="1330" />
              <mxPoint x="180" y="1330" />
            </Array>
          </mxGeometry>
        </mxCell>
        <mxCell id="ZeQfbBNh24i9MI3Sl9Xb-10" value="1 ... n" style="edgeLabel;html=1;align=center;verticalAlign=middle;resizable=0;points=[];" parent="ZeQfbBNh24i9MI3Sl9Xb-9" vertex="1" connectable="0">
          <mxGeometry x="-0.9132" y="-1" relative="1" as="geometry">
            <mxPoint x="-271" y="-146" as="offset" />
          </mxGeometry>
        </mxCell>
      </root>
    </mxGraphModel>
  </diagram>
  <diagram id="qaaZQ09habeZ29WqEDDo" name="Page-2">
    <mxGraphModel dx="2670" dy="813" grid="1" gridSize="10" guides="1" tooltips="1" connect="1" arrows="1" fold="1" page="1" pageScale="1" pageWidth="827" pageHeight="1169" math="0" shadow="0">
      <root>
        <mxCell id="0" />
        <mxCell id="1" parent="0" />
        <mxCell id="hE60feSfhiL6bu_TPimx-1" value="Actors" style="swimlane;whiteSpace=wrap;html=1;" vertex="1" parent="1">
          <mxGeometry x="10" y="10" width="1050" height="870" as="geometry" />
        </mxCell>
        <mxCell id="hE60feSfhiL6bu_TPimx-2" value="&lt;b&gt;Student&lt;/b&gt;" style="swimlane;fontStyle=0;childLayout=stackLayout;horizontal=1;startSize=26;fillColor=none;horizontalStack=0;resizeParent=1;resizeParentMax=0;resizeLast=0;collapsible=1;marginBottom=0;whiteSpace=wrap;html=1;" vertex="1" parent="hE60feSfhiL6bu_TPimx-1">
          <mxGeometry x="30" y="551" width="162" height="112" as="geometry" />
        </mxCell>
        <mxCell id="hE60feSfhiL6bu_TPimx-189" value="&amp;lt;&amp;lt; Class &amp;gt;&amp;gt;&amp;nbsp;" style="swimlane;fontStyle=1;align=center;verticalAlign=top;childLayout=stackLayout;horizontal=1;startSize=26;horizontalStack=0;resizeParent=1;resizeParentMax=0;resizeLast=0;collapsible=1;marginBottom=0;whiteSpace=wrap;html=1;" vertex="1" parent="hE60feSfhiL6bu_TPimx-2">
          <mxGeometry y="26" width="162" height="86" as="geometry" />
        </mxCell>
        <mxCell id="hE60feSfhiL6bu_TPimx-5" value="- role: Role {constant}" style="text;strokeColor=none;fillColor=none;align=left;verticalAlign=top;spacingLeft=4;spacingRight=4;overflow=hidden;rotatable=0;points=[[0,0.5],[1,0.5]];portConstraint=eastwest;whiteSpace=wrap;html=1;" vertex="1" parent="hE60feSfhiL6bu_TPimx-189">
          <mxGeometry y="26" width="162" height="26" as="geometry" />
        </mxCell>
        <mxCell id="hE60feSfhiL6bu_TPimx-191" value="" style="line;strokeWidth=1;fillColor=none;align=left;verticalAlign=middle;spacingTop=-1;spacingLeft=3;spacingRight=3;rotatable=0;labelPosition=right;points=[];portConstraint=eastwest;strokeColor=inherit;" vertex="1" parent="hE60feSfhiL6bu_TPimx-189">
          <mxGeometry y="52" width="162" height="8" as="geometry" />
        </mxCell>
        <mxCell id="hE60feSfhiL6bu_TPimx-223" value="+ getRole(): Role" style="text;strokeColor=none;fillColor=none;align=left;verticalAlign=top;spacingLeft=4;spacingRight=4;overflow=hidden;rotatable=0;points=[[0,0.5],[1,0.5]];portConstraint=eastwest;whiteSpace=wrap;html=1;" vertex="1" parent="hE60feSfhiL6bu_TPimx-189">
          <mxGeometry y="60" width="162" height="26" as="geometry" />
        </mxCell>
        <mxCell id="hE60feSfhiL6bu_TPimx-7" value="&lt;b&gt;Teacher&lt;/b&gt;" style="swimlane;fontStyle=0;childLayout=stackLayout;horizontal=1;startSize=26;fillColor=none;horizontalStack=0;resizeParent=1;resizeParentMax=0;resizeLast=0;collapsible=1;marginBottom=0;whiteSpace=wrap;html=1;" vertex="1" parent="hE60feSfhiL6bu_TPimx-1">
          <mxGeometry x="230" y="551" width="162" height="138" as="geometry" />
        </mxCell>
        <mxCell id="hE60feSfhiL6bu_TPimx-201" value="&amp;lt;&amp;lt; Class &amp;gt;&amp;gt;&amp;nbsp;" style="swimlane;fontStyle=1;align=center;verticalAlign=top;childLayout=stackLayout;horizontal=1;startSize=26;horizontalStack=0;resizeParent=1;resizeParentMax=0;resizeLast=0;collapsible=1;marginBottom=0;whiteSpace=wrap;html=1;" vertex="1" parent="hE60feSfhiL6bu_TPimx-7">
          <mxGeometry y="26" width="162" height="112" as="geometry" />
        </mxCell>
        <mxCell id="hE60feSfhiL6bu_TPimx-9" value="- role: Role {constant}" style="text;strokeColor=none;fillColor=none;align=left;verticalAlign=top;spacingLeft=4;spacingRight=4;overflow=hidden;rotatable=0;points=[[0,0.5],[1,0.5]];portConstraint=eastwest;whiteSpace=wrap;html=1;" vertex="1" parent="hE60feSfhiL6bu_TPimx-201">
          <mxGeometry y="26" width="162" height="26" as="geometry" />
        </mxCell>
        <mxCell id="hE60feSfhiL6bu_TPimx-203" value="" style="line;strokeWidth=1;fillColor=none;align=left;verticalAlign=middle;spacingTop=-1;spacingLeft=3;spacingRight=3;rotatable=0;labelPosition=right;points=[];portConstraint=eastwest;strokeColor=inherit;" vertex="1" parent="hE60feSfhiL6bu_TPimx-201">
          <mxGeometry y="52" width="162" height="8" as="geometry" />
        </mxCell>
        <mxCell id="hE60feSfhiL6bu_TPimx-231" value="+ getRole(): Role" style="text;strokeColor=none;fillColor=none;align=left;verticalAlign=top;spacingLeft=4;spacingRight=4;overflow=hidden;rotatable=0;points=[[0,0.5],[1,0.5]];portConstraint=eastwest;whiteSpace=wrap;html=1;" vertex="1" parent="hE60feSfhiL6bu_TPimx-201">
          <mxGeometry y="60" width="162" height="26" as="geometry" />
        </mxCell>
        <mxCell id="hE60feSfhiL6bu_TPimx-252" value="+ getLinkedAdmins(): User[]" style="text;strokeColor=none;fillColor=none;align=left;verticalAlign=top;spacingLeft=4;spacingRight=4;overflow=hidden;rotatable=0;points=[[0,0.5],[1,0.5]];portConstraint=eastwest;whiteSpace=wrap;html=1;" vertex="1" parent="hE60feSfhiL6bu_TPimx-201">
          <mxGeometry y="86" width="162" height="26" as="geometry" />
        </mxCell>
        <mxCell id="hE60feSfhiL6bu_TPimx-11" value="&lt;b&gt;School Admin&lt;/b&gt;" style="swimlane;fontStyle=0;childLayout=stackLayout;horizontal=1;startSize=26;fillColor=none;horizontalStack=0;resizeParent=1;resizeParentMax=0;resizeLast=0;collapsible=1;marginBottom=0;whiteSpace=wrap;html=1;" vertex="1" parent="hE60feSfhiL6bu_TPimx-1">
          <mxGeometry x="625" y="552" width="162" height="138" as="geometry" />
        </mxCell>
        <mxCell id="hE60feSfhiL6bu_TPimx-205" value="&amp;lt;&amp;lt; Class &amp;gt;&amp;gt;&amp;nbsp;" style="swimlane;fontStyle=1;align=center;verticalAlign=top;childLayout=stackLayout;horizontal=1;startSize=26;horizontalStack=0;resizeParent=1;resizeParentMax=0;resizeLast=0;collapsible=1;marginBottom=0;whiteSpace=wrap;html=1;" vertex="1" parent="hE60feSfhiL6bu_TPimx-11">
          <mxGeometry y="26" width="162" height="112" as="geometry" />
        </mxCell>
        <mxCell id="hE60feSfhiL6bu_TPimx-13" value="- role: Role {constant}" style="text;strokeColor=none;fillColor=none;align=left;verticalAlign=top;spacingLeft=4;spacingRight=4;overflow=hidden;rotatable=0;points=[[0,0.5],[1,0.5]];portConstraint=eastwest;whiteSpace=wrap;html=1;" vertex="1" parent="hE60feSfhiL6bu_TPimx-205">
          <mxGeometry y="26" width="162" height="26" as="geometry" />
        </mxCell>
        <mxCell id="hE60feSfhiL6bu_TPimx-207" value="" style="line;strokeWidth=1;fillColor=none;align=left;verticalAlign=middle;spacingTop=-1;spacingLeft=3;spacingRight=3;rotatable=0;labelPosition=right;points=[];portConstraint=eastwest;strokeColor=inherit;" vertex="1" parent="hE60feSfhiL6bu_TPimx-205">
          <mxGeometry y="52" width="162" height="8" as="geometry" />
        </mxCell>
        <mxCell id="hE60feSfhiL6bu_TPimx-208" value="+ getRole(): Role" style="text;strokeColor=none;fillColor=none;align=left;verticalAlign=top;spacingLeft=4;spacingRight=4;overflow=hidden;rotatable=0;points=[[0,0.5],[1,0.5]];portConstraint=eastwest;whiteSpace=wrap;html=1;" vertex="1" parent="hE60feSfhiL6bu_TPimx-205">
          <mxGeometry y="60" width="162" height="26" as="geometry" />
        </mxCell>
        <mxCell id="hE60feSfhiL6bu_TPimx-254" value="+ getLinkedAdmins(): User[]" style="text;strokeColor=none;fillColor=none;align=left;verticalAlign=top;spacingLeft=4;spacingRight=4;overflow=hidden;rotatable=0;points=[[0,0.5],[1,0.5]];portConstraint=eastwest;whiteSpace=wrap;html=1;" vertex="1" parent="hE60feSfhiL6bu_TPimx-205">
          <mxGeometry y="86" width="162" height="26" as="geometry" />
        </mxCell>
        <mxCell id="hE60feSfhiL6bu_TPimx-15" value="&lt;b&gt;Admin&lt;/b&gt;" style="swimlane;fontStyle=0;childLayout=stackLayout;horizontal=1;startSize=26;fillColor=none;horizontalStack=0;resizeParent=1;resizeParentMax=0;resizeLast=0;collapsible=1;marginBottom=0;whiteSpace=wrap;html=1;" vertex="1" parent="hE60feSfhiL6bu_TPimx-1">
          <mxGeometry x="831" y="551" width="162" height="112" as="geometry" />
        </mxCell>
        <mxCell id="hE60feSfhiL6bu_TPimx-213" value="&amp;lt;&amp;lt; Class &amp;gt;&amp;gt;&amp;nbsp;" style="swimlane;fontStyle=1;align=center;verticalAlign=top;childLayout=stackLayout;horizontal=1;startSize=26;horizontalStack=0;resizeParent=1;resizeParentMax=0;resizeLast=0;collapsible=1;marginBottom=0;whiteSpace=wrap;html=1;" vertex="1" parent="hE60feSfhiL6bu_TPimx-15">
          <mxGeometry y="26" width="162" height="86" as="geometry" />
        </mxCell>
        <mxCell id="hE60feSfhiL6bu_TPimx-17" value="- role: Role {constant}" style="text;strokeColor=none;fillColor=none;align=left;verticalAlign=top;spacingLeft=4;spacingRight=4;overflow=hidden;rotatable=0;points=[[0,0.5],[1,0.5]];portConstraint=eastwest;whiteSpace=wrap;html=1;" vertex="1" parent="hE60feSfhiL6bu_TPimx-213">
          <mxGeometry y="26" width="162" height="26" as="geometry" />
        </mxCell>
        <mxCell id="hE60feSfhiL6bu_TPimx-215" value="" style="line;strokeWidth=1;fillColor=none;align=left;verticalAlign=middle;spacingTop=-1;spacingLeft=3;spacingRight=3;rotatable=0;labelPosition=right;points=[];portConstraint=eastwest;strokeColor=inherit;" vertex="1" parent="hE60feSfhiL6bu_TPimx-213">
          <mxGeometry y="52" width="162" height="8" as="geometry" />
        </mxCell>
        <mxCell id="hE60feSfhiL6bu_TPimx-246" value="+ getRole(): Role" style="text;strokeColor=none;fillColor=none;align=left;verticalAlign=top;spacingLeft=4;spacingRight=4;overflow=hidden;rotatable=0;points=[[0,0.5],[1,0.5]];portConstraint=eastwest;whiteSpace=wrap;html=1;" vertex="1" parent="hE60feSfhiL6bu_TPimx-213">
          <mxGeometry y="60" width="162" height="26" as="geometry" />
        </mxCell>
        <mxCell id="hE60feSfhiL6bu_TPimx-18" value="&lt;b&gt;Visitor&lt;/b&gt;" style="swimlane;fontStyle=0;childLayout=stackLayout;horizontal=1;startSize=26;fillColor=none;horizontalStack=0;resizeParent=1;resizeParentMax=0;resizeLast=0;collapsible=1;marginBottom=0;whiteSpace=wrap;html=1;" vertex="1" parent="hE60feSfhiL6bu_TPimx-1">
          <mxGeometry x="430" y="551" width="162" height="268" as="geometry" />
        </mxCell>
        <mxCell id="hE60feSfhiL6bu_TPimx-209" value="&amp;lt;&amp;lt; Class &amp;gt;&amp;gt;&amp;nbsp;" style="swimlane;fontStyle=1;align=center;verticalAlign=top;childLayout=stackLayout;horizontal=1;startSize=26;horizontalStack=0;resizeParent=1;resizeParentMax=0;resizeLast=0;collapsible=1;marginBottom=0;whiteSpace=wrap;html=1;" vertex="1" parent="hE60feSfhiL6bu_TPimx-18">
          <mxGeometry y="26" width="162" height="242" as="geometry" />
        </mxCell>
        <mxCell id="hE60feSfhiL6bu_TPimx-22" value="- role: Role {constant}" style="text;strokeColor=none;fillColor=none;align=left;verticalAlign=top;spacingLeft=4;spacingRight=4;overflow=hidden;rotatable=0;points=[[0,0.5],[1,0.5]];portConstraint=eastwest;whiteSpace=wrap;html=1;" vertex="1" parent="hE60feSfhiL6bu_TPimx-209">
          <mxGeometry y="26" width="162" height="26" as="geometry" />
        </mxCell>
        <mxCell id="hE60feSfhiL6bu_TPimx-21" value="+ phoneNumber: String" style="text;strokeColor=none;fillColor=none;align=left;verticalAlign=top;spacingLeft=4;spacingRight=4;overflow=hidden;rotatable=0;points=[[0,0.5],[1,0.5]];portConstraint=eastwest;whiteSpace=wrap;html=1;" vertex="1" parent="hE60feSfhiL6bu_TPimx-209">
          <mxGeometry y="52" width="162" height="26" as="geometry" />
        </mxCell>
        <mxCell id="hE60feSfhiL6bu_TPimx-20" value="+ email: String" style="text;strokeColor=none;fillColor=none;align=left;verticalAlign=top;spacingLeft=4;spacingRight=4;overflow=hidden;rotatable=0;points=[[0,0.5],[1,0.5]];portConstraint=eastwest;whiteSpace=wrap;html=1;" vertex="1" parent="hE60feSfhiL6bu_TPimx-209">
          <mxGeometry y="78" width="162" height="26" as="geometry" />
        </mxCell>
        <mxCell id="hE60feSfhiL6bu_TPimx-211" value="" style="line;strokeWidth=1;fillColor=none;align=left;verticalAlign=middle;spacingTop=-1;spacingLeft=3;spacingRight=3;rotatable=0;labelPosition=right;points=[];portConstraint=eastwest;strokeColor=inherit;" vertex="1" parent="hE60feSfhiL6bu_TPimx-209">
          <mxGeometry y="104" width="162" height="8" as="geometry" />
        </mxCell>
        <mxCell id="hE60feSfhiL6bu_TPimx-212" value="+ getRole(): Role" style="text;strokeColor=none;fillColor=none;align=left;verticalAlign=top;spacingLeft=4;spacingRight=4;overflow=hidden;rotatable=0;points=[[0,0.5],[1,0.5]];portConstraint=eastwest;whiteSpace=wrap;html=1;" vertex="1" parent="hE60feSfhiL6bu_TPimx-209">
          <mxGeometry y="112" width="162" height="26" as="geometry" />
        </mxCell>
        <mxCell id="hE60feSfhiL6bu_TPimx-237" value="+ getEmail(): String" style="text;strokeColor=none;fillColor=none;align=left;verticalAlign=top;spacingLeft=4;spacingRight=4;overflow=hidden;rotatable=0;points=[[0,0.5],[1,0.5]];portConstraint=eastwest;whiteSpace=wrap;html=1;" vertex="1" parent="hE60feSfhiL6bu_TPimx-209">
          <mxGeometry y="138" width="162" height="26" as="geometry" />
        </mxCell>
        <mxCell id="hE60feSfhiL6bu_TPimx-238" value="+ setEmail(): String" style="text;strokeColor=none;fillColor=none;align=left;verticalAlign=top;spacingLeft=4;spacingRight=4;overflow=hidden;rotatable=0;points=[[0,0.5],[1,0.5]];portConstraint=eastwest;whiteSpace=wrap;html=1;" vertex="1" parent="hE60feSfhiL6bu_TPimx-209">
          <mxGeometry y="164" width="162" height="26" as="geometry" />
        </mxCell>
        <mxCell id="hE60feSfhiL6bu_TPimx-239" value="+ getPhoneNumber(): String" style="text;strokeColor=none;fillColor=none;align=left;verticalAlign=top;spacingLeft=4;spacingRight=4;overflow=hidden;rotatable=0;points=[[0,0.5],[1,0.5]];portConstraint=eastwest;whiteSpace=wrap;html=1;" vertex="1" parent="hE60feSfhiL6bu_TPimx-209">
          <mxGeometry y="190" width="162" height="26" as="geometry" />
        </mxCell>
        <mxCell id="hE60feSfhiL6bu_TPimx-240" value="+ setPhoneNumber(): String" style="text;strokeColor=none;fillColor=none;align=left;verticalAlign=top;spacingLeft=4;spacingRight=4;overflow=hidden;rotatable=0;points=[[0,0.5],[1,0.5]];portConstraint=eastwest;whiteSpace=wrap;html=1;" vertex="1" parent="hE60feSfhiL6bu_TPimx-209">
          <mxGeometry y="216" width="162" height="26" as="geometry" />
        </mxCell>
        <mxCell id="hE60feSfhiL6bu_TPimx-23" value="User" style="swimlane;fontStyle=0;childLayout=stackLayout;horizontal=1;startSize=26;fillColor=none;horizontalStack=0;resizeParent=1;resizeParentMax=0;resizeLast=0;collapsible=1;marginBottom=0;whiteSpace=wrap;html=1;" vertex="1" parent="hE60feSfhiL6bu_TPimx-1">
          <mxGeometry x="405" y="40" width="240" height="369" as="geometry" />
        </mxCell>
        <mxCell id="hE60feSfhiL6bu_TPimx-141" value="&amp;lt;&amp;lt; Abstract &amp;gt;&amp;gt;" style="swimlane;fontStyle=1;align=center;verticalAlign=top;childLayout=stackLayout;horizontal=1;startSize=26;horizontalStack=0;resizeParent=1;resizeParentMax=0;resizeLast=0;collapsible=1;marginBottom=0;whiteSpace=wrap;html=1;" vertex="1" parent="hE60feSfhiL6bu_TPimx-23">
          <mxGeometry y="26" width="240" height="343" as="geometry" />
        </mxCell>
        <mxCell id="hE60feSfhiL6bu_TPimx-24" value="+ token: String {constant}" style="text;strokeColor=none;fillColor=none;align=left;verticalAlign=top;spacingLeft=4;spacingRight=4;overflow=hidden;rotatable=0;points=[[0,0.5],[1,0.5]];portConstraint=eastwest;whiteSpace=wrap;html=1;" vertex="1" parent="hE60feSfhiL6bu_TPimx-141">
          <mxGeometry y="26" width="240" height="24" as="geometry" />
        </mxCell>
        <mxCell id="hE60feSfhiL6bu_TPimx-25" value="- userName: String" style="text;strokeColor=none;fillColor=none;align=left;verticalAlign=top;spacingLeft=4;spacingRight=4;overflow=hidden;rotatable=0;points=[[0,0.5],[1,0.5]];portConstraint=eastwest;whiteSpace=wrap;html=1;" vertex="1" parent="hE60feSfhiL6bu_TPimx-141">
          <mxGeometry y="50" width="240" height="26" as="geometry" />
        </mxCell>
        <mxCell id="hE60feSfhiL6bu_TPimx-26" value="- password:&amp;nbsp; String" style="text;strokeColor=none;fillColor=none;align=left;verticalAlign=top;spacingLeft=4;spacingRight=4;overflow=hidden;rotatable=0;points=[[0,0.5],[1,0.5]];portConstraint=eastwest;whiteSpace=wrap;html=1;" vertex="1" parent="hE60feSfhiL6bu_TPimx-141">
          <mxGeometry y="76" width="240" height="25" as="geometry" />
        </mxCell>
        <mxCell id="hE60feSfhiL6bu_TPimx-28" value="- pronoun: Pronoun" style="text;strokeColor=none;fillColor=none;align=left;verticalAlign=top;spacingLeft=4;spacingRight=4;overflow=hidden;rotatable=0;points=[[0,0.5],[1,0.5]];portConstraint=eastwest;whiteSpace=wrap;html=1;" vertex="1" parent="hE60feSfhiL6bu_TPimx-141">
          <mxGeometry y="101" width="240" height="26" as="geometry" />
        </mxCell>
        <mxCell id="hE60feSfhiL6bu_TPimx-248" value="- contactDetails: ContactDetails" style="text;strokeColor=none;fillColor=none;align=left;verticalAlign=top;spacingLeft=4;spacingRight=4;overflow=hidden;rotatable=0;points=[[0,0.5],[1,0.5]];portConstraint=eastwest;whiteSpace=wrap;html=1;" vertex="1" parent="hE60feSfhiL6bu_TPimx-141">
          <mxGeometry y="127" width="240" height="26" as="geometry" />
        </mxCell>
        <mxCell id="hE60feSfhiL6bu_TPimx-27" value="- preferredName: String" style="text;strokeColor=none;fillColor=none;align=left;verticalAlign=top;spacingLeft=4;spacingRight=4;overflow=hidden;rotatable=0;points=[[0,0.5],[1,0.5]];portConstraint=eastwest;whiteSpace=wrap;html=1;" vertex="1" parent="hE60feSfhiL6bu_TPimx-141">
          <mxGeometry y="153" width="240" height="26" as="geometry" />
        </mxCell>
        <mxCell id="hE60feSfhiL6bu_TPimx-249" value="+ role: Role {constant}" style="text;strokeColor=none;fillColor=none;align=left;verticalAlign=top;spacingLeft=4;spacingRight=4;overflow=hidden;rotatable=0;points=[[0,0.5],[1,0.5]];portConstraint=eastwest;whiteSpace=wrap;html=1;" vertex="1" parent="hE60feSfhiL6bu_TPimx-141">
          <mxGeometry y="179" width="240" height="26" as="geometry" />
        </mxCell>
        <mxCell id="hE60feSfhiL6bu_TPimx-143" value="" style="line;strokeWidth=1;fillColor=none;align=left;verticalAlign=middle;spacingTop=-1;spacingLeft=3;spacingRight=3;rotatable=0;labelPosition=right;points=[];portConstraint=eastwest;strokeColor=inherit;" vertex="1" parent="hE60feSfhiL6bu_TPimx-141">
          <mxGeometry y="205" width="240" height="8" as="geometry" />
        </mxCell>
        <mxCell id="hE60feSfhiL6bu_TPimx-144" value="+ getToken(): String" style="text;strokeColor=none;fillColor=none;align=left;verticalAlign=top;spacingLeft=4;spacingRight=4;overflow=hidden;rotatable=0;points=[[0,0.5],[1,0.5]];portConstraint=eastwest;whiteSpace=wrap;html=1;" vertex="1" parent="hE60feSfhiL6bu_TPimx-141">
          <mxGeometry y="213" width="240" height="26" as="geometry" />
        </mxCell>
        <mxCell id="hE60feSfhiL6bu_TPimx-181" value="+ setToken( String ): String" style="text;strokeColor=none;fillColor=none;align=left;verticalAlign=top;spacingLeft=4;spacingRight=4;overflow=hidden;rotatable=0;points=[[0,0.5],[1,0.5]];portConstraint=eastwest;whiteSpace=wrap;html=1;" vertex="1" parent="hE60feSfhiL6bu_TPimx-141">
          <mxGeometry y="239" width="240" height="26" as="geometry" />
        </mxCell>
        <mxCell id="hE60feSfhiL6bu_TPimx-182" value="+ validateCreds( String, String): Boolean" style="text;strokeColor=none;fillColor=none;align=left;verticalAlign=top;spacingLeft=4;spacingRight=4;overflow=hidden;rotatable=0;points=[[0,0.5],[1,0.5]];portConstraint=eastwest;whiteSpace=wrap;html=1;" vertex="1" parent="hE60feSfhiL6bu_TPimx-141">
          <mxGeometry y="265" width="240" height="26" as="geometry" />
        </mxCell>
        <mxCell id="hE60feSfhiL6bu_TPimx-183" value="+ getProfile(): User" style="text;strokeColor=none;fillColor=none;align=left;verticalAlign=top;spacingLeft=4;spacingRight=4;overflow=hidden;rotatable=0;points=[[0,0.5],[1,0.5]];portConstraint=eastwest;whiteSpace=wrap;html=1;" vertex="1" parent="hE60feSfhiL6bu_TPimx-141">
          <mxGeometry y="291" width="240" height="26" as="geometry" />
        </mxCell>
        <mxCell id="hE60feSfhiL6bu_TPimx-184" value="+ setProfile( User )" style="text;strokeColor=none;fillColor=none;align=left;verticalAlign=top;spacingLeft=4;spacingRight=4;overflow=hidden;rotatable=0;points=[[0,0.5],[1,0.5]];portConstraint=eastwest;whiteSpace=wrap;html=1;" vertex="1" parent="hE60feSfhiL6bu_TPimx-141">
          <mxGeometry y="317" width="240" height="26" as="geometry" />
        </mxCell>
        <mxCell id="hE60feSfhiL6bu_TPimx-29" value="&lt;p style=&quot;margin:0px;margin-top:4px;text-align:center;&quot;&gt;&lt;i&gt;&amp;lt;&amp;lt;Enumeration&amp;gt;&amp;gt;&lt;/i&gt;&lt;br&gt;&lt;b&gt;Role&lt;/b&gt;&lt;/p&gt;&lt;hr size=&quot;1&quot;&gt;&lt;p style=&quot;margin:0px;margin-left:4px;&quot;&gt;VISITOR&lt;/p&gt;&lt;p style=&quot;margin:0px;margin-left:4px;&quot;&gt;STUDENT&lt;br&gt;&lt;/p&gt;&lt;p style=&quot;margin:0px;margin-left:4px;&quot;&gt;TEACHER&lt;/p&gt;&lt;p style=&quot;margin:0px;margin-left:4px;&quot;&gt;SCHOOL_ADMIN&lt;/p&gt;&lt;p style=&quot;margin:0px;margin-left:4px;&quot;&gt;ADMIN&lt;/p&gt;&lt;p style=&quot;margin:0px;margin-left:4px;&quot;&gt;&lt;br&gt;&lt;/p&gt;" style="verticalAlign=top;align=left;overflow=fill;fontSize=12;fontFamily=Helvetica;html=1;whiteSpace=wrap;" vertex="1" parent="hE60feSfhiL6bu_TPimx-1">
          <mxGeometry x="58" y="100" width="134" height="120" as="geometry" />
        </mxCell>
        <mxCell id="hE60feSfhiL6bu_TPimx-185" value="Extends" style="endArrow=block;endSize=16;endFill=0;html=1;rounded=0;entryX=0.51;entryY=1.092;entryDx=0;entryDy=0;entryPerimeter=0;exitX=0.5;exitY=0;exitDx=0;exitDy=0;" edge="1" parent="hE60feSfhiL6bu_TPimx-1" source="hE60feSfhiL6bu_TPimx-2" target="hE60feSfhiL6bu_TPimx-184">
          <mxGeometry width="160" relative="1" as="geometry">
            <mxPoint x="400" y="430" as="sourcePoint" />
            <mxPoint x="560" y="430" as="targetPoint" />
            <Array as="points">
              <mxPoint x="110" y="430" />
              <mxPoint x="527" y="430" />
            </Array>
          </mxGeometry>
        </mxCell>
        <mxCell id="hE60feSfhiL6bu_TPimx-186" value="Extends" style="endArrow=block;endSize=16;endFill=0;html=1;rounded=0;entryX=0.51;entryY=1.131;entryDx=0;entryDy=0;entryPerimeter=0;exitX=0.5;exitY=0;exitDx=0;exitDy=0;" edge="1" parent="hE60feSfhiL6bu_TPimx-1" source="hE60feSfhiL6bu_TPimx-7" target="hE60feSfhiL6bu_TPimx-184">
          <mxGeometry width="160" relative="1" as="geometry">
            <mxPoint x="121" y="520" as="sourcePoint" />
            <mxPoint x="540" y="373" as="targetPoint" />
            <Array as="points">
              <mxPoint x="310" y="470" />
              <mxPoint x="527" y="470" />
            </Array>
          </mxGeometry>
        </mxCell>
        <mxCell id="hE60feSfhiL6bu_TPimx-187" value="Extends" style="endArrow=block;endSize=16;endFill=0;html=1;rounded=0;exitX=0.5;exitY=0;exitDx=0;exitDy=0;entryX=0.511;entryY=1.123;entryDx=0;entryDy=0;entryPerimeter=0;" edge="1" parent="hE60feSfhiL6bu_TPimx-1" source="hE60feSfhiL6bu_TPimx-11" target="hE60feSfhiL6bu_TPimx-184">
          <mxGeometry x="-0.0057" width="160" relative="1" as="geometry">
            <mxPoint x="321" y="520" as="sourcePoint" />
            <mxPoint x="530" y="370" as="targetPoint" />
            <Array as="points">
              <mxPoint x="706" y="470" />
              <mxPoint x="528" y="470" />
            </Array>
            <mxPoint as="offset" />
          </mxGeometry>
        </mxCell>
        <mxCell id="hE60feSfhiL6bu_TPimx-188" value="Extends" style="endArrow=block;endSize=16;endFill=0;html=1;rounded=0;exitX=0.5;exitY=0;exitDx=0;exitDy=0;entryX=0.503;entryY=1.082;entryDx=0;entryDy=0;entryPerimeter=0;" edge="1" parent="hE60feSfhiL6bu_TPimx-1" source="hE60feSfhiL6bu_TPimx-15" target="hE60feSfhiL6bu_TPimx-184">
          <mxGeometry width="160" relative="1" as="geometry">
            <mxPoint x="121" y="520" as="sourcePoint" />
            <mxPoint x="550" y="390" as="targetPoint" />
            <Array as="points">
              <mxPoint x="910" y="430" />
              <mxPoint x="525" y="430" />
            </Array>
          </mxGeometry>
        </mxCell>
        <mxCell id="hE60feSfhiL6bu_TPimx-34" value="Rooms" style="swimlane;whiteSpace=wrap;html=1;startSize=23;" vertex="1" parent="1">
          <mxGeometry x="10" y="970" width="1050" height="1520" as="geometry" />
        </mxCell>
        <mxCell id="hE60feSfhiL6bu_TPimx-35" value="Subject" style="swimlane;fontStyle=0;childLayout=stackLayout;horizontal=1;startSize=26;fillColor=none;horizontalStack=0;resizeParent=1;resizeParentMax=0;resizeLast=0;collapsible=1;marginBottom=0;whiteSpace=wrap;html=1;" vertex="1" parent="hE60feSfhiL6bu_TPimx-34">
          <mxGeometry x="30" y="380" width="200" height="156" as="geometry" />
        </mxCell>
        <mxCell id="hE60feSfhiL6bu_TPimx-36" value="+ id: String {constant}" style="text;strokeColor=none;fillColor=none;align=left;verticalAlign=top;spacingLeft=4;spacingRight=4;overflow=hidden;rotatable=0;points=[[0,0.5],[1,0.5]];portConstraint=eastwest;whiteSpace=wrap;html=1;" vertex="1" parent="hE60feSfhiL6bu_TPimx-35">
          <mxGeometry y="26" width="200" height="26" as="geometry" />
        </mxCell>
        <mxCell id="hE60feSfhiL6bu_TPimx-37" value="+ owner: Teacher[]" style="text;strokeColor=none;fillColor=none;align=left;verticalAlign=top;spacingLeft=4;spacingRight=4;overflow=hidden;rotatable=0;points=[[0,0.5],[1,0.5]];portConstraint=eastwest;whiteSpace=wrap;html=1;" vertex="1" parent="hE60feSfhiL6bu_TPimx-35">
          <mxGeometry y="52" width="200" height="26" as="geometry" />
        </mxCell>
        <mxCell id="hE60feSfhiL6bu_TPimx-38" value="&amp;nbsp;- curriculum: Curriculum" style="text;strokeColor=none;fillColor=none;align=left;verticalAlign=top;spacingLeft=4;spacingRight=4;overflow=hidden;rotatable=0;points=[[0,0.5],[1,0.5]];portConstraint=eastwest;whiteSpace=wrap;html=1;" vertex="1" parent="hE60feSfhiL6bu_TPimx-35">
          <mxGeometry y="78" width="200" height="26" as="geometry" />
        </mxCell>
        <mxCell id="hE60feSfhiL6bu_TPimx-39" value="- coursework: Materials[]" style="text;strokeColor=none;fillColor=none;align=left;verticalAlign=top;spacingLeft=4;spacingRight=4;overflow=hidden;rotatable=0;points=[[0,0.5],[1,0.5]];portConstraint=eastwest;whiteSpace=wrap;html=1;" vertex="1" parent="hE60feSfhiL6bu_TPimx-35">
          <mxGeometry y="104" width="200" height="26" as="geometry" />
        </mxCell>
        <mxCell id="hE60feSfhiL6bu_TPimx-40" value="- examBank: Question[]" style="text;strokeColor=none;fillColor=none;align=left;verticalAlign=top;spacingLeft=4;spacingRight=4;overflow=hidden;rotatable=0;points=[[0,0.5],[1,0.5]];portConstraint=eastwest;whiteSpace=wrap;html=1;" vertex="1" parent="hE60feSfhiL6bu_TPimx-35">
          <mxGeometry y="130" width="200" height="26" as="geometry" />
        </mxCell>
        <mxCell id="hE60feSfhiL6bu_TPimx-41" value="Private Room" style="swimlane;fontStyle=0;childLayout=stackLayout;horizontal=1;startSize=26;fillColor=none;horizontalStack=0;resizeParent=1;resizeParentMax=0;resizeLast=0;collapsible=1;marginBottom=0;whiteSpace=wrap;html=1;" vertex="1" parent="hE60feSfhiL6bu_TPimx-34">
          <mxGeometry x="30" y="70" width="240" height="234" as="geometry" />
        </mxCell>
        <mxCell id="hE60feSfhiL6bu_TPimx-42" value="+ id: String {constant}" style="text;strokeColor=none;fillColor=none;align=left;verticalAlign=top;spacingLeft=4;spacingRight=4;overflow=hidden;rotatable=0;points=[[0,0.5],[1,0.5]];portConstraint=eastwest;whiteSpace=wrap;html=1;" vertex="1" parent="hE60feSfhiL6bu_TPimx-41">
          <mxGeometry y="26" width="240" height="26" as="geometry" />
        </mxCell>
        <mxCell id="hE60feSfhiL6bu_TPimx-43" value="+ owner: Teacher" style="text;strokeColor=none;fillColor=none;align=left;verticalAlign=top;spacingLeft=4;spacingRight=4;overflow=hidden;rotatable=0;points=[[0,0.5],[1,0.5]];portConstraint=eastwest;whiteSpace=wrap;html=1;" vertex="1" parent="hE60feSfhiL6bu_TPimx-41">
          <mxGeometry y="52" width="240" height="26" as="geometry" />
        </mxCell>
        <mxCell id="hE60feSfhiL6bu_TPimx-44" value="- students: Student[]" style="text;strokeColor=none;fillColor=none;align=left;verticalAlign=top;spacingLeft=4;spacingRight=4;overflow=hidden;rotatable=0;points=[[0,0.5],[1,0.5]];portConstraint=eastwest;whiteSpace=wrap;html=1;" vertex="1" parent="hE60feSfhiL6bu_TPimx-41">
          <mxGeometry y="78" width="240" height="26" as="geometry" />
        </mxCell>
        <mxCell id="hE60feSfhiL6bu_TPimx-45" value="- broadcast: String" style="text;strokeColor=none;fillColor=none;align=left;verticalAlign=top;spacingLeft=4;spacingRight=4;overflow=hidden;rotatable=0;points=[[0,0.5],[1,0.5]];portConstraint=eastwest;whiteSpace=wrap;html=1;" vertex="1" parent="hE60feSfhiL6bu_TPimx-41">
          <mxGeometry y="104" width="240" height="26" as="geometry" />
        </mxCell>
        <mxCell id="hE60feSfhiL6bu_TPimx-46" value="- subject: Subject" style="text;strokeColor=none;fillColor=none;align=left;verticalAlign=top;spacingLeft=4;spacingRight=4;overflow=hidden;rotatable=0;points=[[0,0.5],[1,0.5]];portConstraint=eastwest;whiteSpace=wrap;html=1;" vertex="1" parent="hE60feSfhiL6bu_TPimx-41">
          <mxGeometry y="130" width="240" height="26" as="geometry" />
        </mxCell>
        <mxCell id="hE60feSfhiL6bu_TPimx-47" value="- schedule: Schedule[]" style="text;strokeColor=none;fillColor=none;align=left;verticalAlign=top;spacingLeft=4;spacingRight=4;overflow=hidden;rotatable=0;points=[[0,0.5],[1,0.5]];portConstraint=eastwest;whiteSpace=wrap;html=1;" vertex="1" parent="hE60feSfhiL6bu_TPimx-41">
          <mxGeometry y="156" width="240" height="26" as="geometry" />
        </mxCell>
        <mxCell id="hE60feSfhiL6bu_TPimx-48" value="- subject: Subject" style="text;strokeColor=none;fillColor=none;align=left;verticalAlign=top;spacingLeft=4;spacingRight=4;overflow=hidden;rotatable=0;points=[[0,0.5],[1,0.5]];portConstraint=eastwest;whiteSpace=wrap;html=1;" vertex="1" parent="hE60feSfhiL6bu_TPimx-41">
          <mxGeometry y="182" width="240" height="26" as="geometry" />
        </mxCell>
        <mxCell id="hE60feSfhiL6bu_TPimx-49" value="&amp;nbsp;- coursework: LessonPlan[]" style="text;strokeColor=none;fillColor=none;align=left;verticalAlign=top;spacingLeft=4;spacingRight=4;overflow=hidden;rotatable=0;points=[[0,0.5],[1,0.5]];portConstraint=eastwest;whiteSpace=wrap;html=1;" vertex="1" parent="hE60feSfhiL6bu_TPimx-41">
          <mxGeometry y="208" width="240" height="26" as="geometry" />
        </mxCell>
        <mxCell id="hE60feSfhiL6bu_TPimx-50" value="Materials" style="swimlane;fontStyle=0;childLayout=stackLayout;horizontal=1;startSize=26;fillColor=none;horizontalStack=0;resizeParent=1;resizeParentMax=0;resizeLast=0;collapsible=1;marginBottom=0;whiteSpace=wrap;html=1;" vertex="1" parent="hE60feSfhiL6bu_TPimx-34">
          <mxGeometry x="40" y="640" width="166" height="156" as="geometry" />
        </mxCell>
        <mxCell id="hE60feSfhiL6bu_TPimx-51" value="+ id: String {constant}" style="text;strokeColor=none;fillColor=none;align=left;verticalAlign=top;spacingLeft=4;spacingRight=4;overflow=hidden;rotatable=0;points=[[0,0.5],[1,0.5]];portConstraint=eastwest;whiteSpace=wrap;html=1;" vertex="1" parent="hE60feSfhiL6bu_TPimx-50">
          <mxGeometry y="26" width="166" height="26" as="geometry" />
        </mxCell>
        <mxCell id="hE60feSfhiL6bu_TPimx-52" value="- text: links[]" style="text;strokeColor=none;fillColor=none;align=left;verticalAlign=top;spacingLeft=4;spacingRight=4;overflow=hidden;rotatable=0;points=[[0,0.5],[1,0.5]];portConstraint=eastwest;whiteSpace=wrap;html=1;" vertex="1" parent="hE60feSfhiL6bu_TPimx-50">
          <mxGeometry y="52" width="166" height="26" as="geometry" />
        </mxCell>
        <mxCell id="hE60feSfhiL6bu_TPimx-53" value="- video: links[]" style="text;strokeColor=none;fillColor=none;align=left;verticalAlign=top;spacingLeft=4;spacingRight=4;overflow=hidden;rotatable=0;points=[[0,0.5],[1,0.5]];portConstraint=eastwest;whiteSpace=wrap;html=1;" vertex="1" parent="hE60feSfhiL6bu_TPimx-50">
          <mxGeometry y="78" width="166" height="26" as="geometry" />
        </mxCell>
        <mxCell id="hE60feSfhiL6bu_TPimx-54" value="- quiz: links[]" style="text;strokeColor=none;fillColor=none;align=left;verticalAlign=top;spacingLeft=4;spacingRight=4;overflow=hidden;rotatable=0;points=[[0,0.5],[1,0.5]];portConstraint=eastwest;whiteSpace=wrap;html=1;" vertex="1" parent="hE60feSfhiL6bu_TPimx-50">
          <mxGeometry y="104" width="166" height="26" as="geometry" />
        </mxCell>
        <mxCell id="hE60feSfhiL6bu_TPimx-55" value="- research: links[]" style="text;strokeColor=none;fillColor=none;align=left;verticalAlign=top;spacingLeft=4;spacingRight=4;overflow=hidden;rotatable=0;points=[[0,0.5],[1,0.5]];portConstraint=eastwest;whiteSpace=wrap;html=1;" vertex="1" parent="hE60feSfhiL6bu_TPimx-50">
          <mxGeometry y="130" width="166" height="26" as="geometry" />
        </mxCell>
        <mxCell id="hE60feSfhiL6bu_TPimx-56" value="Lesson Plan" style="swimlane;fontStyle=0;childLayout=stackLayout;horizontal=1;startSize=26;fillColor=none;horizontalStack=0;resizeParent=1;resizeParentMax=0;resizeLast=0;collapsible=1;marginBottom=0;whiteSpace=wrap;html=1;" vertex="1" parent="hE60feSfhiL6bu_TPimx-34">
          <mxGeometry x="250" y="380" width="166" height="156" as="geometry" />
        </mxCell>
        <mxCell id="hE60feSfhiL6bu_TPimx-57" value="+ id: String {constant}" style="text;strokeColor=none;fillColor=none;align=left;verticalAlign=top;spacingLeft=4;spacingRight=4;overflow=hidden;rotatable=0;points=[[0,0.5],[1,0.5]];portConstraint=eastwest;whiteSpace=wrap;html=1;" vertex="1" parent="hE60feSfhiL6bu_TPimx-56">
          <mxGeometry y="26" width="166" height="26" as="geometry" />
        </mxCell>
        <mxCell id="hE60feSfhiL6bu_TPimx-58" value="- date: Date" style="text;strokeColor=none;fillColor=none;align=left;verticalAlign=top;spacingLeft=4;spacingRight=4;overflow=hidden;rotatable=0;points=[[0,0.5],[1,0.5]];portConstraint=eastwest;whiteSpace=wrap;html=1;" vertex="1" parent="hE60feSfhiL6bu_TPimx-56">
          <mxGeometry y="52" width="166" height="26" as="geometry" />
        </mxCell>
        <mxCell id="hE60feSfhiL6bu_TPimx-59" value="-&amp;nbsp; objective: Objective" style="text;strokeColor=none;fillColor=none;align=left;verticalAlign=top;spacingLeft=4;spacingRight=4;overflow=hidden;rotatable=0;points=[[0,0.5],[1,0.5]];portConstraint=eastwest;whiteSpace=wrap;html=1;" vertex="1" parent="hE60feSfhiL6bu_TPimx-56">
          <mxGeometry y="78" width="166" height="26" as="geometry" />
        </mxCell>
        <mxCell id="hE60feSfhiL6bu_TPimx-60" value="- quiz: links[]" style="text;strokeColor=none;fillColor=none;align=left;verticalAlign=top;spacingLeft=4;spacingRight=4;overflow=hidden;rotatable=0;points=[[0,0.5],[1,0.5]];portConstraint=eastwest;whiteSpace=wrap;html=1;" vertex="1" parent="hE60feSfhiL6bu_TPimx-56">
          <mxGeometry y="104" width="166" height="26" as="geometry" />
        </mxCell>
        <mxCell id="hE60feSfhiL6bu_TPimx-61" value="- research: links[]" style="text;strokeColor=none;fillColor=none;align=left;verticalAlign=top;spacingLeft=4;spacingRight=4;overflow=hidden;rotatable=0;points=[[0,0.5],[1,0.5]];portConstraint=eastwest;whiteSpace=wrap;html=1;" vertex="1" parent="hE60feSfhiL6bu_TPimx-56">
          <mxGeometry y="130" width="166" height="26" as="geometry" />
        </mxCell>
        <mxCell id="hE60feSfhiL6bu_TPimx-62" value="Public Room" style="swimlane;fontStyle=0;childLayout=stackLayout;horizontal=1;startSize=26;fillColor=none;horizontalStack=0;resizeParent=1;resizeParentMax=0;resizeLast=0;collapsible=1;marginBottom=0;whiteSpace=wrap;html=1;" vertex="1" parent="hE60feSfhiL6bu_TPimx-34">
          <mxGeometry x="392" y="70" width="240" height="182" as="geometry" />
        </mxCell>
        <mxCell id="hE60feSfhiL6bu_TPimx-63" value="+ id: String {constant}" style="text;strokeColor=none;fillColor=none;align=left;verticalAlign=top;spacingLeft=4;spacingRight=4;overflow=hidden;rotatable=0;points=[[0,0.5],[1,0.5]];portConstraint=eastwest;whiteSpace=wrap;html=1;" vertex="1" parent="hE60feSfhiL6bu_TPimx-62">
          <mxGeometry y="26" width="240" height="26" as="geometry" />
        </mxCell>
        <mxCell id="hE60feSfhiL6bu_TPimx-64" value="+ owner: Teacher" style="text;strokeColor=none;fillColor=none;align=left;verticalAlign=top;spacingLeft=4;spacingRight=4;overflow=hidden;rotatable=0;points=[[0,0.5],[1,0.5]];portConstraint=eastwest;whiteSpace=wrap;html=1;" vertex="1" parent="hE60feSfhiL6bu_TPimx-62">
          <mxGeometry y="52" width="240" height="26" as="geometry" />
        </mxCell>
        <mxCell id="hE60feSfhiL6bu_TPimx-65" value="+ introduction: String" style="text;strokeColor=none;fillColor=none;align=left;verticalAlign=top;spacingLeft=4;spacingRight=4;overflow=hidden;rotatable=0;points=[[0,0.5],[1,0.5]];portConstraint=eastwest;whiteSpace=wrap;html=1;" vertex="1" parent="hE60feSfhiL6bu_TPimx-62">
          <mxGeometry y="78" width="240" height="26" as="geometry" />
        </mxCell>
        <mxCell id="hE60feSfhiL6bu_TPimx-66" value="&amp;nbsp;+ about: String" style="text;strokeColor=none;fillColor=none;align=left;verticalAlign=top;spacingLeft=4;spacingRight=4;overflow=hidden;rotatable=0;points=[[0,0.5],[1,0.5]];portConstraint=eastwest;whiteSpace=wrap;html=1;" vertex="1" parent="hE60feSfhiL6bu_TPimx-62">
          <mxGeometry y="104" width="240" height="26" as="geometry" />
        </mxCell>
        <mxCell id="hE60feSfhiL6bu_TPimx-67" value="+ testimonials: String" style="text;strokeColor=none;fillColor=none;align=left;verticalAlign=top;spacingLeft=4;spacingRight=4;overflow=hidden;rotatable=0;points=[[0,0.5],[1,0.5]];portConstraint=eastwest;whiteSpace=wrap;html=1;" vertex="1" parent="hE60feSfhiL6bu_TPimx-62">
          <mxGeometry y="130" width="240" height="26" as="geometry" />
        </mxCell>
        <mxCell id="hE60feSfhiL6bu_TPimx-68" value="- inquire: Inquiry[]" style="text;strokeColor=none;fillColor=none;align=left;verticalAlign=top;spacingLeft=4;spacingRight=4;overflow=hidden;rotatable=0;points=[[0,0.5],[1,0.5]];portConstraint=eastwest;whiteSpace=wrap;html=1;" vertex="1" parent="hE60feSfhiL6bu_TPimx-62">
          <mxGeometry y="156" width="240" height="26" as="geometry" />
        </mxCell>
        <mxCell id="hE60feSfhiL6bu_TPimx-69" value="" style="endArrow=diamondThin;endFill=1;endSize=24;html=1;rounded=0;entryX=0.499;entryY=1.038;entryDx=0;entryDy=0;entryPerimeter=0;" edge="1" parent="hE60feSfhiL6bu_TPimx-34" target="hE60feSfhiL6bu_TPimx-49">
          <mxGeometry width="160" relative="1" as="geometry">
            <mxPoint x="150" y="380" as="sourcePoint" />
            <mxPoint x="480" y="310" as="targetPoint" />
            <Array as="points">
              <mxPoint x="150" y="340" />
            </Array>
          </mxGeometry>
        </mxCell>
        <mxCell id="hE60feSfhiL6bu_TPimx-70" value="1" style="edgeLabel;html=1;align=center;verticalAlign=middle;resizable=0;points=[];" vertex="1" connectable="0" parent="hE60feSfhiL6bu_TPimx-69">
          <mxGeometry x="-0.6455" y="-2" relative="1" as="geometry">
            <mxPoint as="offset" />
          </mxGeometry>
        </mxCell>
        <mxCell id="hE60feSfhiL6bu_TPimx-71" value="" style="endArrow=diamondThin;endFill=1;endSize=24;html=1;rounded=0;exitX=0.5;exitY=0;exitDx=0;exitDy=0;entryX=0.741;entryY=1.176;entryDx=0;entryDy=0;entryPerimeter=0;" edge="1" parent="hE60feSfhiL6bu_TPimx-34" source="hE60feSfhiL6bu_TPimx-56" target="hE60feSfhiL6bu_TPimx-49">
          <mxGeometry width="160" relative="1" as="geometry">
            <mxPoint x="380" y="380" as="sourcePoint" />
            <mxPoint x="270" y="280" as="targetPoint" />
            <Array as="points">
              <mxPoint x="333" y="340" />
              <mxPoint x="208" y="340" />
            </Array>
          </mxGeometry>
        </mxCell>
        <mxCell id="hE60feSfhiL6bu_TPimx-72" value="1... n" style="edgeLabel;html=1;align=center;verticalAlign=middle;resizable=0;points=[];" vertex="1" connectable="0" parent="hE60feSfhiL6bu_TPimx-71">
          <mxGeometry x="-0.494" y="3" relative="1" as="geometry">
            <mxPoint x="-45" as="offset" />
          </mxGeometry>
        </mxCell>
        <mxCell id="hE60feSfhiL6bu_TPimx-73" value="" style="endArrow=diamondThin;endFill=1;endSize=24;html=1;rounded=0;exitX=0.175;exitY=0.004;exitDx=0;exitDy=0;entryX=0.203;entryY=1.115;entryDx=0;entryDy=0;entryPerimeter=0;exitPerimeter=0;" edge="1" parent="hE60feSfhiL6bu_TPimx-34" source="hE60feSfhiL6bu_TPimx-50" target="hE60feSfhiL6bu_TPimx-40">
          <mxGeometry width="160" relative="1" as="geometry">
            <mxPoint x="122.5" y="641" as="sourcePoint" />
            <mxPoint x="122.5" y="536" as="targetPoint" />
            <Array as="points">
              <mxPoint x="71" y="601" />
            </Array>
          </mxGeometry>
        </mxCell>
        <mxCell id="hE60feSfhiL6bu_TPimx-74" value="1" style="edgeLabel;html=1;align=center;verticalAlign=middle;resizable=0;points=[];" vertex="1" connectable="0" parent="hE60feSfhiL6bu_TPimx-73">
          <mxGeometry x="-0.6455" y="-2" relative="1" as="geometry">
            <mxPoint as="offset" />
          </mxGeometry>
        </mxCell>
        <mxCell id="hE60feSfhiL6bu_TPimx-75" value="Curriculum" style="swimlane;fontStyle=0;childLayout=stackLayout;horizontal=1;startSize=26;fillColor=none;horizontalStack=0;resizeParent=1;resizeParentMax=0;resizeLast=0;collapsible=1;marginBottom=0;whiteSpace=wrap;html=1;" vertex="1" parent="hE60feSfhiL6bu_TPimx-34">
          <mxGeometry x="250" y="640" width="166" height="78" as="geometry" />
        </mxCell>
        <mxCell id="hE60feSfhiL6bu_TPimx-76" value="+ brief: String" style="text;strokeColor=none;fillColor=none;align=left;verticalAlign=top;spacingLeft=4;spacingRight=4;overflow=hidden;rotatable=0;points=[[0,0.5],[1,0.5]];portConstraint=eastwest;whiteSpace=wrap;html=1;" vertex="1" parent="hE60feSfhiL6bu_TPimx-75">
          <mxGeometry y="26" width="166" height="26" as="geometry" />
        </mxCell>
        <mxCell id="hE60feSfhiL6bu_TPimx-77" value="- objectives: Objective[]" style="text;strokeColor=none;fillColor=none;align=left;verticalAlign=top;spacingLeft=4;spacingRight=4;overflow=hidden;rotatable=0;points=[[0,0.5],[1,0.5]];portConstraint=eastwest;whiteSpace=wrap;html=1;" vertex="1" parent="hE60feSfhiL6bu_TPimx-75">
          <mxGeometry y="52" width="166" height="26" as="geometry" />
        </mxCell>
        <mxCell id="hE60feSfhiL6bu_TPimx-78" value="" style="endArrow=diamondThin;endFill=1;endSize=24;html=1;rounded=0;exitX=0.799;exitY=0;exitDx=0;exitDy=0;entryX=0.4;entryY=1.154;entryDx=0;entryDy=0;entryPerimeter=0;exitPerimeter=0;" edge="1" parent="hE60feSfhiL6bu_TPimx-34" target="hE60feSfhiL6bu_TPimx-40">
          <mxGeometry width="160" relative="1" as="geometry">
            <mxPoint x="310" y="635" as="sourcePoint" />
            <mxPoint x="310" y="530" as="targetPoint" />
            <Array as="points">
              <mxPoint x="310" y="620" />
              <mxPoint x="110" y="620" />
            </Array>
          </mxGeometry>
        </mxCell>
        <mxCell id="hE60feSfhiL6bu_TPimx-79" value="1" style="edgeLabel;html=1;align=center;verticalAlign=middle;resizable=0;points=[];" vertex="1" connectable="0" parent="hE60feSfhiL6bu_TPimx-78">
          <mxGeometry x="-0.6455" y="-2" relative="1" as="geometry">
            <mxPoint x="-93" as="offset" />
          </mxGeometry>
        </mxCell>
        <mxCell id="hE60feSfhiL6bu_TPimx-80" value="Objective" style="swimlane;fontStyle=0;childLayout=stackLayout;horizontal=1;startSize=26;fillColor=none;horizontalStack=0;resizeParent=1;resizeParentMax=0;resizeLast=0;collapsible=1;marginBottom=0;whiteSpace=wrap;html=1;" vertex="1" parent="hE60feSfhiL6bu_TPimx-34">
          <mxGeometry x="150" y="840" width="166" height="78" as="geometry" />
        </mxCell>
        <mxCell id="hE60feSfhiL6bu_TPimx-81" value="+ id: String" style="text;strokeColor=none;fillColor=none;align=left;verticalAlign=top;spacingLeft=4;spacingRight=4;overflow=hidden;rotatable=0;points=[[0,0.5],[1,0.5]];portConstraint=eastwest;whiteSpace=wrap;html=1;" vertex="1" parent="hE60feSfhiL6bu_TPimx-80">
          <mxGeometry y="26" width="166" height="26" as="geometry" />
        </mxCell>
        <mxCell id="hE60feSfhiL6bu_TPimx-82" value="- value: String" style="text;strokeColor=none;fillColor=none;align=left;verticalAlign=top;spacingLeft=4;spacingRight=4;overflow=hidden;rotatable=0;points=[[0,0.5],[1,0.5]];portConstraint=eastwest;whiteSpace=wrap;html=1;" vertex="1" parent="hE60feSfhiL6bu_TPimx-80">
          <mxGeometry y="52" width="166" height="26" as="geometry" />
        </mxCell>
        <mxCell id="hE60feSfhiL6bu_TPimx-83" value="" style="endArrow=diamondThin;endFill=0;endSize=24;html=1;rounded=0;entryX=1;entryY=0.5;entryDx=0;entryDy=0;exitX=0.908;exitY=0.026;exitDx=0;exitDy=0;exitPerimeter=0;" edge="1" parent="hE60feSfhiL6bu_TPimx-34" source="hE60feSfhiL6bu_TPimx-80" target="hE60feSfhiL6bu_TPimx-59">
          <mxGeometry width="160" relative="1" as="geometry">
            <mxPoint x="420" y="830" as="sourcePoint" />
            <mxPoint x="590" y="830" as="targetPoint" />
            <Array as="points">
              <mxPoint x="300" y="740" />
              <mxPoint x="470" y="740" />
              <mxPoint x="470" y="471" />
            </Array>
          </mxGeometry>
        </mxCell>
        <mxCell id="hE60feSfhiL6bu_TPimx-84" value="1" style="edgeLabel;html=1;align=center;verticalAlign=middle;resizable=0;points=[];" vertex="1" connectable="0" parent="hE60feSfhiL6bu_TPimx-83">
          <mxGeometry x="-0.9411" y="-2" relative="1" as="geometry">
            <mxPoint as="offset" />
          </mxGeometry>
        </mxCell>
        <mxCell id="hE60feSfhiL6bu_TPimx-85" value="Question" style="swimlane;fontStyle=0;childLayout=stackLayout;horizontal=1;startSize=26;fillColor=none;horizontalStack=0;resizeParent=1;resizeParentMax=0;resizeLast=0;collapsible=1;marginBottom=0;whiteSpace=wrap;html=1;" vertex="1" parent="hE60feSfhiL6bu_TPimx-34">
          <mxGeometry x="544" y="640" width="196" height="130" as="geometry" />
        </mxCell>
        <mxCell id="hE60feSfhiL6bu_TPimx-86" value="+ type: QuestionType {constant}" style="text;strokeColor=none;fillColor=none;align=left;verticalAlign=top;spacingLeft=4;spacingRight=4;overflow=hidden;rotatable=0;points=[[0,0.5],[1,0.5]];portConstraint=eastwest;whiteSpace=wrap;html=1;" vertex="1" parent="hE60feSfhiL6bu_TPimx-85">
          <mxGeometry y="26" width="196" height="26" as="geometry" />
        </mxCell>
        <mxCell id="hE60feSfhiL6bu_TPimx-87" value="+ brief: String" style="text;strokeColor=none;fillColor=none;align=left;verticalAlign=top;spacingLeft=4;spacingRight=4;overflow=hidden;rotatable=0;points=[[0,0.5],[1,0.5]];portConstraint=eastwest;whiteSpace=wrap;html=1;" vertex="1" parent="hE60feSfhiL6bu_TPimx-85">
          <mxGeometry y="52" width="196" height="26" as="geometry" />
        </mxCell>
        <mxCell id="hE60feSfhiL6bu_TPimx-88" value="- answer: String" style="text;strokeColor=none;fillColor=none;align=left;verticalAlign=top;spacingLeft=4;spacingRight=4;overflow=hidden;rotatable=0;points=[[0,0.5],[1,0.5]];portConstraint=eastwest;whiteSpace=wrap;html=1;" vertex="1" parent="hE60feSfhiL6bu_TPimx-85">
          <mxGeometry y="78" width="196" height="26" as="geometry" />
        </mxCell>
        <mxCell id="hE60feSfhiL6bu_TPimx-89" value="- options: AnswerOption[]" style="text;strokeColor=none;fillColor=none;align=left;verticalAlign=top;spacingLeft=4;spacingRight=4;overflow=hidden;rotatable=0;points=[[0,0.5],[1,0.5]];portConstraint=eastwest;whiteSpace=wrap;html=1;" vertex="1" parent="hE60feSfhiL6bu_TPimx-85">
          <mxGeometry y="104" width="196" height="26" as="geometry" />
        </mxCell>
        <mxCell id="hE60feSfhiL6bu_TPimx-90" value="AnswerOption" style="swimlane;fontStyle=0;childLayout=stackLayout;horizontal=1;startSize=26;fillColor=none;horizontalStack=0;resizeParent=1;resizeParentMax=0;resizeLast=0;collapsible=1;marginBottom=0;whiteSpace=wrap;html=1;" vertex="1" parent="hE60feSfhiL6bu_TPimx-34">
          <mxGeometry x="340" y="930" width="166" height="78" as="geometry" />
        </mxCell>
        <mxCell id="hE60feSfhiL6bu_TPimx-91" value="+ id: String" style="text;strokeColor=none;fillColor=none;align=left;verticalAlign=top;spacingLeft=4;spacingRight=4;overflow=hidden;rotatable=0;points=[[0,0.5],[1,0.5]];portConstraint=eastwest;whiteSpace=wrap;html=1;" vertex="1" parent="hE60feSfhiL6bu_TPimx-90">
          <mxGeometry y="26" width="166" height="26" as="geometry" />
        </mxCell>
        <mxCell id="hE60feSfhiL6bu_TPimx-92" value="- value: String" style="text;strokeColor=none;fillColor=none;align=left;verticalAlign=top;spacingLeft=4;spacingRight=4;overflow=hidden;rotatable=0;points=[[0,0.5],[1,0.5]];portConstraint=eastwest;whiteSpace=wrap;html=1;" vertex="1" parent="hE60feSfhiL6bu_TPimx-90">
          <mxGeometry y="52" width="166" height="26" as="geometry" />
        </mxCell>
        <mxCell id="hE60feSfhiL6bu_TPimx-93" value="&lt;p style=&quot;margin:0px;margin-top:4px;text-align:center;&quot;&gt;&lt;i&gt;&amp;lt;&amp;lt;Enumeration&amp;gt;&amp;gt;&lt;/i&gt;&lt;br&gt;&lt;b&gt;QuestionType&lt;/b&gt;&lt;/p&gt;&lt;hr size=&quot;1&quot;&gt;&lt;p style=&quot;margin:0px;margin-left:4px;&quot;&gt;MULTIPLE_CHOICE&lt;/p&gt;&lt;p style=&quot;margin:0px;margin-left:4px;&quot;&gt;MULTI_SELECT&lt;/p&gt;&lt;p style=&quot;margin:0px;margin-left:4px;&quot;&gt;SHORT_ANSWER&lt;/p&gt;&lt;p style=&quot;margin:0px;margin-left:4px;&quot;&gt;LONG_ANSWER&lt;/p&gt;&lt;p style=&quot;margin:0px;margin-left:4px;&quot;&gt;UPLOAD&lt;/p&gt;&lt;p style=&quot;margin:0px;margin-left:4px;&quot;&gt;&lt;br&gt;&lt;/p&gt;" style="verticalAlign=top;align=left;overflow=fill;fontSize=12;fontFamily=Helvetica;html=1;whiteSpace=wrap;" vertex="1" parent="hE60feSfhiL6bu_TPimx-34">
          <mxGeometry x="600" y="888" width="190" height="120" as="geometry" />
        </mxCell>
        <mxCell id="hE60feSfhiL6bu_TPimx-94" value="" style="endArrow=diamondThin;endFill=1;endSize=24;html=1;rounded=0;exitX=0.711;exitY=0.009;exitDx=0;exitDy=0;entryX=0.136;entryY=1.131;entryDx=0;entryDy=0;entryPerimeter=0;exitPerimeter=0;" edge="1" parent="hE60feSfhiL6bu_TPimx-34" source="hE60feSfhiL6bu_TPimx-90" target="hE60feSfhiL6bu_TPimx-89">
          <mxGeometry width="160" relative="1" as="geometry">
            <mxPoint x="390" y="870" as="sourcePoint" />
            <mxPoint x="685" y="820" as="targetPoint" />
            <Array as="points">
              <mxPoint x="460" y="880" />
              <mxPoint x="570" y="880" />
            </Array>
          </mxGeometry>
        </mxCell>
        <mxCell id="hE60feSfhiL6bu_TPimx-95" value="1 ... 4" style="edgeLabel;html=1;align=center;verticalAlign=middle;resizable=0;points=[];" vertex="1" connectable="0" parent="hE60feSfhiL6bu_TPimx-94">
          <mxGeometry x="-0.9132" y="-1" relative="1" as="geometry">
            <mxPoint as="offset" />
          </mxGeometry>
        </mxCell>
        <mxCell id="hE60feSfhiL6bu_TPimx-96" value="" style="endArrow=diamondThin;endFill=1;endSize=24;html=1;rounded=0;exitX=0.5;exitY=0;exitDx=0;exitDy=0;entryX=0.547;entryY=1.177;entryDx=0;entryDy=0;entryPerimeter=0;" edge="1" parent="hE60feSfhiL6bu_TPimx-34" source="hE60feSfhiL6bu_TPimx-85" target="hE60feSfhiL6bu_TPimx-40">
          <mxGeometry width="160" relative="1" as="geometry">
            <mxPoint x="640" y="620" as="sourcePoint" />
            <mxPoint x="220" y="570" as="targetPoint" />
            <Array as="points">
              <mxPoint x="640" y="600" />
              <mxPoint x="139" y="600" />
            </Array>
          </mxGeometry>
        </mxCell>
        <mxCell id="hE60feSfhiL6bu_TPimx-97" value="1 ... n" style="edgeLabel;html=1;align=center;verticalAlign=middle;resizable=0;points=[];" vertex="1" connectable="0" parent="hE60feSfhiL6bu_TPimx-96">
          <mxGeometry x="-0.9205" y="-3" relative="1" as="geometry">
            <mxPoint x="-438" y="-21" as="offset" />
          </mxGeometry>
        </mxCell>
        <mxCell id="hE60feSfhiL6bu_TPimx-98" value="Inquiry" style="swimlane;fontStyle=0;childLayout=stackLayout;horizontal=1;startSize=26;fillColor=none;horizontalStack=0;resizeParent=1;resizeParentMax=0;resizeLast=0;collapsible=1;marginBottom=0;whiteSpace=wrap;html=1;" vertex="1" parent="hE60feSfhiL6bu_TPimx-34">
          <mxGeometry x="500" y="380" width="166" height="156" as="geometry" />
        </mxCell>
        <mxCell id="hE60feSfhiL6bu_TPimx-99" value="+ id: String {constant}" style="text;strokeColor=none;fillColor=none;align=left;verticalAlign=top;spacingLeft=4;spacingRight=4;overflow=hidden;rotatable=0;points=[[0,0.5],[1,0.5]];portConstraint=eastwest;whiteSpace=wrap;html=1;" vertex="1" parent="hE60feSfhiL6bu_TPimx-98">
          <mxGeometry y="26" width="166" height="26" as="geometry" />
        </mxCell>
        <mxCell id="hE60feSfhiL6bu_TPimx-100" value="- date: Date" style="text;strokeColor=none;fillColor=none;align=left;verticalAlign=top;spacingLeft=4;spacingRight=4;overflow=hidden;rotatable=0;points=[[0,0.5],[1,0.5]];portConstraint=eastwest;whiteSpace=wrap;html=1;" vertex="1" parent="hE60feSfhiL6bu_TPimx-98">
          <mxGeometry y="52" width="166" height="26" as="geometry" />
        </mxCell>
        <mxCell id="hE60feSfhiL6bu_TPimx-101" value="-&amp;nbsp; name: String" style="text;strokeColor=none;fillColor=none;align=left;verticalAlign=top;spacingLeft=4;spacingRight=4;overflow=hidden;rotatable=0;points=[[0,0.5],[1,0.5]];portConstraint=eastwest;whiteSpace=wrap;html=1;" vertex="1" parent="hE60feSfhiL6bu_TPimx-98">
          <mxGeometry y="78" width="166" height="26" as="geometry" />
        </mxCell>
        <mxCell id="hE60feSfhiL6bu_TPimx-102" value="- contact: String" style="text;strokeColor=none;fillColor=none;align=left;verticalAlign=top;spacingLeft=4;spacingRight=4;overflow=hidden;rotatable=0;points=[[0,0.5],[1,0.5]];portConstraint=eastwest;whiteSpace=wrap;html=1;" vertex="1" parent="hE60feSfhiL6bu_TPimx-98">
          <mxGeometry y="104" width="166" height="26" as="geometry" />
        </mxCell>
        <mxCell id="hE60feSfhiL6bu_TPimx-103" value="- message: String" style="text;strokeColor=none;fillColor=none;align=left;verticalAlign=top;spacingLeft=4;spacingRight=4;overflow=hidden;rotatable=0;points=[[0,0.5],[1,0.5]];portConstraint=eastwest;whiteSpace=wrap;html=1;" vertex="1" parent="hE60feSfhiL6bu_TPimx-98">
          <mxGeometry y="130" width="166" height="26" as="geometry" />
        </mxCell>
        <mxCell id="hE60feSfhiL6bu_TPimx-104" value="" style="endArrow=diamondThin;endFill=0;endSize=24;html=1;rounded=0;entryX=0.552;entryY=1.143;entryDx=0;entryDy=0;entryPerimeter=0;exitX=0.072;exitY=-0.009;exitDx=0;exitDy=0;exitPerimeter=0;" edge="1" parent="hE60feSfhiL6bu_TPimx-34" source="hE60feSfhiL6bu_TPimx-98" target="hE60feSfhiL6bu_TPimx-68">
          <mxGeometry width="160" relative="1" as="geometry">
            <mxPoint x="510" y="370" as="sourcePoint" />
            <mxPoint x="790" y="280" as="targetPoint" />
            <Array as="points">
              <mxPoint x="510" y="340" />
              <mxPoint x="416" y="340" />
            </Array>
          </mxGeometry>
        </mxCell>
        <mxCell id="hE60feSfhiL6bu_TPimx-105" value="Institure room" style="swimlane;fontStyle=0;childLayout=stackLayout;horizontal=1;startSize=26;fillColor=none;horizontalStack=0;resizeParent=1;resizeParentMax=0;resizeLast=0;collapsible=1;marginBottom=0;whiteSpace=wrap;html=1;" vertex="1" parent="hE60feSfhiL6bu_TPimx-34">
          <mxGeometry x="710" y="70" width="240" height="208" as="geometry" />
        </mxCell>
        <mxCell id="hE60feSfhiL6bu_TPimx-106" value="+ id: String {constant}" style="text;strokeColor=none;fillColor=none;align=left;verticalAlign=top;spacingLeft=4;spacingRight=4;overflow=hidden;rotatable=0;points=[[0,0.5],[1,0.5]];portConstraint=eastwest;whiteSpace=wrap;html=1;" vertex="1" parent="hE60feSfhiL6bu_TPimx-105">
          <mxGeometry y="26" width="240" height="26" as="geometry" />
        </mxCell>
        <mxCell id="hE60feSfhiL6bu_TPimx-107" value="+ owner: SchoolAdmin" style="text;strokeColor=none;fillColor=none;align=left;verticalAlign=top;spacingLeft=4;spacingRight=4;overflow=hidden;rotatable=0;points=[[0,0.5],[1,0.5]];portConstraint=eastwest;whiteSpace=wrap;html=1;" vertex="1" parent="hE60feSfhiL6bu_TPimx-105">
          <mxGeometry y="52" width="240" height="26" as="geometry" />
        </mxCell>
        <mxCell id="hE60feSfhiL6bu_TPimx-108" value="+ introduction: String" style="text;strokeColor=none;fillColor=none;align=left;verticalAlign=top;spacingLeft=4;spacingRight=4;overflow=hidden;rotatable=0;points=[[0,0.5],[1,0.5]];portConstraint=eastwest;whiteSpace=wrap;html=1;" vertex="1" parent="hE60feSfhiL6bu_TPimx-105">
          <mxGeometry y="78" width="240" height="26" as="geometry" />
        </mxCell>
        <mxCell id="hE60feSfhiL6bu_TPimx-109" value="&amp;nbsp;+ about: String" style="text;strokeColor=none;fillColor=none;align=left;verticalAlign=top;spacingLeft=4;spacingRight=4;overflow=hidden;rotatable=0;points=[[0,0.5],[1,0.5]];portConstraint=eastwest;whiteSpace=wrap;html=1;" vertex="1" parent="hE60feSfhiL6bu_TPimx-105">
          <mxGeometry y="104" width="240" height="26" as="geometry" />
        </mxCell>
        <mxCell id="hE60feSfhiL6bu_TPimx-110" value="+ publicRooms: PublicRooms[]" style="text;strokeColor=none;fillColor=none;align=left;verticalAlign=top;spacingLeft=4;spacingRight=4;overflow=hidden;rotatable=0;points=[[0,0.5],[1,0.5]];portConstraint=eastwest;whiteSpace=wrap;html=1;" vertex="1" parent="hE60feSfhiL6bu_TPimx-105">
          <mxGeometry y="130" width="240" height="26" as="geometry" />
        </mxCell>
        <mxCell id="hE60feSfhiL6bu_TPimx-111" value="+ testimonials: String" style="text;strokeColor=none;fillColor=none;align=left;verticalAlign=top;spacingLeft=4;spacingRight=4;overflow=hidden;rotatable=0;points=[[0,0.5],[1,0.5]];portConstraint=eastwest;whiteSpace=wrap;html=1;" vertex="1" parent="hE60feSfhiL6bu_TPimx-105">
          <mxGeometry y="156" width="240" height="26" as="geometry" />
        </mxCell>
        <mxCell id="hE60feSfhiL6bu_TPimx-112" value="- inquire: Inquiry[]" style="text;strokeColor=none;fillColor=none;align=left;verticalAlign=top;spacingLeft=4;spacingRight=4;overflow=hidden;rotatable=0;points=[[0,0.5],[1,0.5]];portConstraint=eastwest;whiteSpace=wrap;html=1;" vertex="1" parent="hE60feSfhiL6bu_TPimx-105">
          <mxGeometry y="182" width="240" height="26" as="geometry" />
        </mxCell>
        <mxCell id="hE60feSfhiL6bu_TPimx-113" value="" style="endArrow=diamondThin;endFill=0;endSize=24;html=1;rounded=0;exitX=0.544;exitY=0;exitDx=0;exitDy=0;entryX=0.153;entryY=1.051;entryDx=0;entryDy=0;entryPerimeter=0;exitPerimeter=0;" edge="1" parent="hE60feSfhiL6bu_TPimx-34" source="hE60feSfhiL6bu_TPimx-98" target="hE60feSfhiL6bu_TPimx-112">
          <mxGeometry width="160" relative="1" as="geometry">
            <mxPoint x="628" y="412" as="sourcePoint" />
            <mxPoint x="426" y="276" as="targetPoint" />
            <Array as="points" />
          </mxGeometry>
        </mxCell>
        <mxCell id="hE60feSfhiL6bu_TPimx-114" value="Link" style="swimlane;fontStyle=0;childLayout=stackLayout;horizontal=1;startSize=26;fillColor=none;horizontalStack=0;resizeParent=1;resizeParentMax=0;resizeLast=0;collapsible=1;marginBottom=0;whiteSpace=wrap;html=1;" vertex="1" parent="hE60feSfhiL6bu_TPimx-34">
          <mxGeometry x="40" y="930" width="166" height="78" as="geometry" />
        </mxCell>
        <mxCell id="hE60feSfhiL6bu_TPimx-115" value="+ id: String" style="text;strokeColor=none;fillColor=none;align=left;verticalAlign=top;spacingLeft=4;spacingRight=4;overflow=hidden;rotatable=0;points=[[0,0.5],[1,0.5]];portConstraint=eastwest;whiteSpace=wrap;html=1;" vertex="1" parent="hE60feSfhiL6bu_TPimx-114">
          <mxGeometry y="26" width="166" height="26" as="geometry" />
        </mxCell>
        <mxCell id="hE60feSfhiL6bu_TPimx-116" value="- location: String" style="text;strokeColor=none;fillColor=none;align=left;verticalAlign=top;spacingLeft=4;spacingRight=4;overflow=hidden;rotatable=0;points=[[0,0.5],[1,0.5]];portConstraint=eastwest;whiteSpace=wrap;html=1;" vertex="1" parent="hE60feSfhiL6bu_TPimx-114">
          <mxGeometry y="52" width="166" height="26" as="geometry" />
        </mxCell>
        <mxCell id="hE60feSfhiL6bu_TPimx-117" value="" style="endArrow=diamondThin;endFill=0;endSize=24;html=1;rounded=0;entryX=0.478;entryY=0.929;entryDx=0;entryDy=0;entryPerimeter=0;exitX=0.205;exitY=-0.004;exitDx=0;exitDy=0;exitPerimeter=0;" edge="1" parent="hE60feSfhiL6bu_TPimx-34" source="hE60feSfhiL6bu_TPimx-93" target="hE60feSfhiL6bu_TPimx-89">
          <mxGeometry width="160" relative="1" as="geometry">
            <mxPoint x="642" y="880" as="sourcePoint" />
            <mxPoint x="641.5" y="774" as="targetPoint" />
          </mxGeometry>
        </mxCell>
        <mxCell id="hE60feSfhiL6bu_TPimx-118" value="" style="endArrow=diamondThin;endFill=0;endSize=24;html=1;rounded=0;exitX=0.5;exitY=0;exitDx=0;exitDy=0;" edge="1" parent="hE60feSfhiL6bu_TPimx-34" source="hE60feSfhiL6bu_TPimx-114" target="hE60feSfhiL6bu_TPimx-55">
          <mxGeometry width="160" relative="1" as="geometry">
            <mxPoint x="118.63" y="881.79" as="sourcePoint" />
            <mxPoint x="117.36199999999997" y="796.002" as="targetPoint" />
          </mxGeometry>
        </mxCell>
        <mxCell id="hE60feSfhiL6bu_TPimx-119" value="" style="endArrow=diamondThin;endFill=0;endSize=24;html=1;rounded=0;exitX=0.75;exitY=0;exitDx=0;exitDy=0;" edge="1" parent="hE60feSfhiL6bu_TPimx-34" source="hE60feSfhiL6bu_TPimx-80">
          <mxGeometry width="160" relative="1" as="geometry">
            <mxPoint x="366" y="860" as="sourcePoint" />
            <mxPoint x="275" y="720" as="targetPoint" />
            <Array as="points" />
          </mxGeometry>
        </mxCell>
        <mxCell id="hE60feSfhiL6bu_TPimx-120" value="1... n" style="edgeLabel;html=1;align=center;verticalAlign=middle;resizable=0;points=[];" vertex="1" connectable="0" parent="hE60feSfhiL6bu_TPimx-119">
          <mxGeometry x="-0.7929" y="-2" relative="1" as="geometry">
            <mxPoint x="-2" y="-45" as="offset" />
          </mxGeometry>
        </mxCell>
        <mxCell id="hE60feSfhiL6bu_TPimx-121" value="Schedule" style="swimlane;fontStyle=0;childLayout=stackLayout;horizontal=1;startSize=26;fillColor=none;horizontalStack=0;resizeParent=1;resizeParentMax=0;resizeLast=0;collapsible=1;marginBottom=0;whiteSpace=wrap;html=1;" vertex="1" parent="hE60feSfhiL6bu_TPimx-34">
          <mxGeometry x="366" y="750" width="166" height="104" as="geometry" />
        </mxCell>
        <mxCell id="hE60feSfhiL6bu_TPimx-122" value="+ name: String" style="text;strokeColor=none;fillColor=none;align=left;verticalAlign=top;spacingLeft=4;spacingRight=4;overflow=hidden;rotatable=0;points=[[0,0.5],[1,0.5]];portConstraint=eastwest;whiteSpace=wrap;html=1;" vertex="1" parent="hE60feSfhiL6bu_TPimx-121">
          <mxGeometry y="26" width="166" height="26" as="geometry" />
        </mxCell>
        <mxCell id="hE60feSfhiL6bu_TPimx-123" value="- dateTime: DateTime" style="text;strokeColor=none;fillColor=none;align=left;verticalAlign=top;spacingLeft=4;spacingRight=4;overflow=hidden;rotatable=0;points=[[0,0.5],[1,0.5]];portConstraint=eastwest;whiteSpace=wrap;html=1;" vertex="1" parent="hE60feSfhiL6bu_TPimx-121">
          <mxGeometry y="52" width="166" height="26" as="geometry" />
        </mxCell>
        <mxCell id="hE60feSfhiL6bu_TPimx-124" value="- details: String" style="text;strokeColor=none;fillColor=none;align=left;verticalAlign=top;spacingLeft=4;spacingRight=4;overflow=hidden;rotatable=0;points=[[0,0.5],[1,0.5]];portConstraint=eastwest;whiteSpace=wrap;html=1;" vertex="1" parent="hE60feSfhiL6bu_TPimx-121">
          <mxGeometry y="78" width="166" height="26" as="geometry" />
        </mxCell>
        <mxCell id="hE60feSfhiL6bu_TPimx-125" value="Comments" style="swimlane;whiteSpace=wrap;html=1;" vertex="1" parent="1">
          <mxGeometry x="-240" y="10" width="200" height="770" as="geometry" />
        </mxCell>
        <mxCell id="hE60feSfhiL6bu_TPimx-126" value="&lt;h1&gt;Notes&lt;/h1&gt;&lt;div&gt;&lt;br&gt;&lt;/div&gt;&lt;div&gt;1. token: unique ID per sessions. Will need some kind of cookie so visitors can be identified&lt;/div&gt;&lt;div&gt;&lt;br&gt;&lt;/div&gt;&lt;div&gt;2 visitor user to be made as a temporary guest when new inquiries are made&lt;/div&gt;&lt;div&gt;&lt;br&gt;&lt;/div&gt;&lt;div&gt;3.&amp;nbsp;&amp;nbsp;&lt;/div&gt;" style="text;html=1;strokeColor=none;fillColor=none;spacing=5;spacingTop=-20;whiteSpace=wrap;overflow=hidden;rounded=0;" vertex="1" parent="hE60feSfhiL6bu_TPimx-125">
          <mxGeometry x="5" y="32" width="190" height="738" as="geometry" />
        </mxCell>
        <mxCell id="hE60feSfhiL6bu_TPimx-127" value="" style="endArrow=diamondThin;endFill=0;endSize=24;html=1;rounded=0;exitX=0.507;exitY=0.969;exitDx=0;exitDy=0;exitPerimeter=0;" edge="1" parent="1" source="hE60feSfhiL6bu_TPimx-252">
          <mxGeometry width="160" relative="1" as="geometry">
            <mxPoint x="320" y="760" as="sourcePoint" />
            <mxPoint x="240" y="1010" as="targetPoint" />
            <Array as="points">
              <mxPoint x="320" y="800" />
              <mxPoint x="239" y="800" />
            </Array>
          </mxGeometry>
        </mxCell>
        <mxCell id="hE60feSfhiL6bu_TPimx-128" value="1" style="edgeLabel;html=1;align=center;verticalAlign=middle;resizable=0;points=[];" vertex="1" connectable="0" parent="hE60feSfhiL6bu_TPimx-127">
          <mxGeometry x="0.3848" y="2" relative="1" as="geometry">
            <mxPoint x="-1" y="38" as="offset" />
          </mxGeometry>
        </mxCell>
        <mxCell id="hE60feSfhiL6bu_TPimx-129" value="" style="endArrow=diamondThin;endFill=0;endSize=24;html=1;rounded=0;entryX=0.488;entryY=-0.006;entryDx=0;entryDy=0;exitX=0.749;exitY=1.031;exitDx=0;exitDy=0;exitPerimeter=0;entryPerimeter=0;" edge="1" parent="1" source="hE60feSfhiL6bu_TPimx-252" target="hE60feSfhiL6bu_TPimx-62">
          <mxGeometry width="160" relative="1" as="geometry">
            <mxPoint x="360" y="760" as="sourcePoint" />
            <mxPoint x="330" y="870" as="targetPoint" />
            <Array as="points">
              <mxPoint x="360" y="940" />
              <mxPoint x="520" y="940" />
            </Array>
          </mxGeometry>
        </mxCell>
        <mxCell id="hE60feSfhiL6bu_TPimx-130" value="1" style="edgeLabel;html=1;align=center;verticalAlign=middle;resizable=0;points=[];" vertex="1" connectable="0" parent="hE60feSfhiL6bu_TPimx-129">
          <mxGeometry x="0.1855" y="-2" relative="1" as="geometry">
            <mxPoint x="18" y="-8" as="offset" />
          </mxGeometry>
        </mxCell>
        <mxCell id="hE60feSfhiL6bu_TPimx-131" value="" style="endArrow=diamondThin;endFill=0;endSize=24;html=1;rounded=0;entryX=0.5;entryY=0;entryDx=0;entryDy=0;exitX=0.493;exitY=1.138;exitDx=0;exitDy=0;exitPerimeter=0;" edge="1" parent="1" source="hE60feSfhiL6bu_TPimx-223" target="hE60feSfhiL6bu_TPimx-41">
          <mxGeometry width="160" relative="1" as="geometry">
            <mxPoint x="90" y="930" as="sourcePoint" />
            <mxPoint x="330" y="870" as="targetPoint" />
            <Array as="points">
              <mxPoint x="120" y="800" />
              <mxPoint x="160" y="800" />
            </Array>
          </mxGeometry>
        </mxCell>
        <mxCell id="hE60feSfhiL6bu_TPimx-132" value="1 ... n" style="edgeLabel;html=1;align=center;verticalAlign=middle;resizable=0;points=[];" vertex="1" connectable="0" parent="hE60feSfhiL6bu_TPimx-131">
          <mxGeometry x="0.3692" relative="1" as="geometry">
            <mxPoint y="27" as="offset" />
          </mxGeometry>
        </mxCell>
        <mxCell id="hE60feSfhiL6bu_TPimx-133" value="Comments" style="swimlane;whiteSpace=wrap;html=1;" vertex="1" parent="1">
          <mxGeometry x="-235" y="820" width="200" height="1020" as="geometry" />
        </mxCell>
        <mxCell id="hE60feSfhiL6bu_TPimx-134" value="&lt;h1&gt;Notes&lt;/h1&gt;&lt;div&gt;&lt;br&gt;&lt;/div&gt;&lt;div&gt;1. Remember to explore the LTI standard&lt;/div&gt;&lt;div&gt;&lt;br&gt;&lt;/div&gt;&lt;div&gt;2.&amp;nbsp;&lt;/div&gt;" style="text;html=1;strokeColor=none;fillColor=none;spacing=5;spacingTop=-20;whiteSpace=wrap;overflow=hidden;rounded=0;" vertex="1" parent="hE60feSfhiL6bu_TPimx-133">
          <mxGeometry x="5" y="32" width="190" height="988" as="geometry" />
        </mxCell>
        <mxCell id="hE60feSfhiL6bu_TPimx-135" value="" style="endArrow=diamondThin;endFill=0;endSize=24;html=1;rounded=0;entryX=0.561;entryY=-0.002;entryDx=0;entryDy=0;entryPerimeter=0;exitX=0.504;exitY=1.085;exitDx=0;exitDy=0;exitPerimeter=0;" edge="1" parent="1" target="hE60feSfhiL6bu_TPimx-105" source="hE60feSfhiL6bu_TPimx-254">
          <mxGeometry width="160" relative="1" as="geometry">
            <mxPoint x="640" y="920" as="sourcePoint" />
            <mxPoint x="427" y="910" as="targetPoint" />
            <Array as="points">
              <mxPoint x="717" y="920" />
              <mxPoint x="855" y="920" />
            </Array>
          </mxGeometry>
        </mxCell>
        <mxCell id="hE60feSfhiL6bu_TPimx-136" value="1" style="edgeLabel;html=1;align=center;verticalAlign=middle;resizable=0;points=[];" vertex="1" connectable="0" parent="hE60feSfhiL6bu_TPimx-135">
          <mxGeometry x="0.1855" y="-2" relative="1" as="geometry">
            <mxPoint as="offset" />
          </mxGeometry>
        </mxCell>
        <mxCell id="hE60feSfhiL6bu_TPimx-137" value="" style="endArrow=none;html=1;rounded=0;entryX=0.502;entryY=1.046;entryDx=0;entryDy=0;entryPerimeter=0;" edge="1" parent="1" target="hE60feSfhiL6bu_TPimx-240">
          <mxGeometry width="50" height="50" relative="1" as="geometry">
            <mxPoint x="600" y="1030" as="sourcePoint" />
            <mxPoint x="520" y="920" as="targetPoint" />
            <Array as="points">
              <mxPoint x="600" y="920" />
              <mxPoint x="520" y="920" />
            </Array>
          </mxGeometry>
        </mxCell>
        <mxCell id="hE60feSfhiL6bu_TPimx-138" value="" style="endArrow=none;html=1;rounded=0;exitX=0.841;exitY=0.005;exitDx=0;exitDy=0;exitPerimeter=0;" edge="1" parent="1" source="hE60feSfhiL6bu_TPimx-105" target="hE60feSfhiL6bu_TPimx-246">
          <mxGeometry width="50" height="50" relative="1" as="geometry">
            <mxPoint x="470" y="910" as="sourcePoint" />
            <mxPoint x="750" y="950" as="targetPoint" />
            <Array as="points">
              <mxPoint x="920" y="920" />
            </Array>
          </mxGeometry>
        </mxCell>
        <mxCell id="hE60feSfhiL6bu_TPimx-139" value="" style="endArrow=diamondThin;endFill=1;endSize=24;html=1;rounded=0;entryX=0.701;entryY=1.126;entryDx=0;entryDy=0;entryPerimeter=0;" edge="1" parent="1" target="hE60feSfhiL6bu_TPimx-40">
          <mxGeometry width="160" relative="1" as="geometry">
            <mxPoint x="520" y="1720" as="sourcePoint" />
            <mxPoint x="180" y="1580" as="targetPoint" />
            <Array as="points">
              <mxPoint x="520" y="1690" />
              <mxPoint x="520" y="1550" />
              <mxPoint x="180" y="1550" />
            </Array>
          </mxGeometry>
        </mxCell>
        <mxCell id="hE60feSfhiL6bu_TPimx-140" value="1 ... n" style="edgeLabel;html=1;align=center;verticalAlign=middle;resizable=0;points=[];" vertex="1" connectable="0" parent="hE60feSfhiL6bu_TPimx-139">
          <mxGeometry x="-0.9132" y="-1" relative="1" as="geometry">
            <mxPoint x="-271" y="-146" as="offset" />
          </mxGeometry>
        </mxCell>
      </root>
    </mxGraphModel>
  </diagram>
</mxfile>
